<!-- icon666.com - MILLIONS vector ICONS FREE --><svg viewBox="-8 0 366 366.1523" xmlns="http://www.w3.org/2000/svg"><path d="m322.390625 42.851562h-14.703125c-1.488281 16.910157-15.652344 29.878907-32.625 29.878907s-31.136719-12.96875-32.625-29.878907h-135.476562c-1.492188 16.910157-15.65625 29.878907-32.628907 29.878907-16.976562 0-31.136719-12.96875-32.628906-29.878907h-14.699219c-14.863281.019532-26.910156 12.066407-26.9296872 26.929688v57.839844h349.2421872v-57.835938c-.011718-14.867187-12.058594-26.917968-26.925781-26.933594zm0 0"></path><path d="m275.058594 58.734375c10.355468-.007813 18.75-8.402344 18.761718-18.757813v-21.0625c.085938-10.367187-8.257812-18.8398432-18.625-18.914062-10.367187-.0742188-18.832031 8.273438-18.898437 18.640625v.273437 21.0625c.011719 10.355469 8.40625 18.75 18.761719 18.757813zm0 0"></path><path d="m74.335938 58.734375c10.355468-.007813 18.75-8.402344 18.761718-18.757813v-21.0625c.074219-10.363281-8.265625-18.8242182-18.625-18.898437-10.363281-.0742188-18.824218 8.261719-18.898437 18.625v.273437 21.0625c.011719 10.355469 8.402343 18.75 18.761719 18.757813zm0 0"></path><path d="m151.835938 273.328125-4.59375 26.261719 24.25-12.5c2.011718-1.035156 4.402343-1.035156 6.414062 0l24.25 12.5-4.601562-26.261719c-.402344-2.300781.371093-4.652344 2.058593-6.269531l19.347657-18.472656-26.855469-3.828126c-2.265625-.324218-4.234375-1.734374-5.261719-3.78125l-12.140625-24.109374-12.144531 24.109374c-1.03125 2.046876-2.996094 3.457032-5.265625 3.78125l-26.851563 3.828126 19.335938 18.472656c1.6875 1.617187 2.460937 3.964844 2.058594 6.269531zm0 0"></path><path d="m.0820312 339.222656c.015625 14.867188 12.0624998 26.910156 26.9257808 26.929688h295.382813c14.863281-.019532 26.910156-12.0625 26.925781-26.929688v-197.597656h-349.2343748zm108.4374998-97.671875c.820313-2.550781 3.027344-4.410156 5.679688-4.789062l37.5-5.339844 16.746093-33.269531c1.191407-2.363282 3.609376-3.851563 6.253907-3.851563s5.0625 1.488281 6.25 3.851563l16.746093 33.265625 37.5 5.339843c2.65625.378907 4.859376 2.238282 5.679688 4.789063.820312 2.554687.109375 5.351563-1.828125 7.203125l-27.054687 25.847656 6.382812 36.46875c.457031 2.617188-.609375 5.269532-2.75 6.84375-2.140625 1.574219-4.988281 1.800782-7.351562.585938l-33.574219-17.300782-33.574219 17.300782c-2.363281 1.214844-5.210938.988281-7.351562-.585938-2.140626-1.574218-3.207032-4.226562-2.75-6.84375l6.382812-36.46875-27.054688-25.84375c-1.9375-1.851562-2.648437-4.648437-1.832031-7.203125zm0 0"></path></svg>