<svg width="2906" height="1340" viewBox="0 0 2906 1340" fill="none" xmlns="http://www.w3.org/2000/svg">
<path opacity="0.2" d="M939 575H1321V895H939V575Z" fill="black"/>
<path opacity="0.2" d="M355 11H571V374H355V11Z" fill="black"/>
<rect x="475" y="346" width="56" height="56" rx="20" fill="black" fill-opacity="0.8"/>
<mask id="mask0_154_1015" style="mask-type:alpha" maskUnits="userSpaceOnUse" x="483" y="354" width="40" height="40">
<rect x="483" y="354" width="40" height="40" fill="#D9D9D9"/>
</mask>
<g mask="url(#mask0_154_1015)">
<path d="M492.444 390.667C491.68 390.667 491.027 390.395 490.483 389.851C489.939 389.307 489.667 388.653 489.667 387.889V370.278C489.667 369.514 489.939 368.86 490.483 368.316C491.027 367.772 491.68 367.5 492.444 367.5H494.944V363.723C494.944 361.494 495.73 359.594 497.302 358.023C498.873 356.452 500.773 355.667 503.003 355.667C505.232 355.667 507.132 356.452 508.701 358.023C510.271 359.594 511.056 361.494 511.056 363.723V367.5H513.556C514.319 367.5 514.973 367.772 515.517 368.316C516.061 368.86 516.333 369.514 516.333 370.278V387.889C516.333 388.653 516.061 389.307 515.517 389.851C514.973 390.395 514.319 390.667 513.556 390.667H492.444ZM503.005 382.334C503.9 382.334 504.664 382.021 505.299 381.395C505.933 380.77 506.25 380.018 506.25 379.139C506.25 378.278 505.931 377.512 505.294 376.841C504.657 376.169 503.89 375.834 502.995 375.834C502.1 375.834 501.336 376.169 500.701 376.841C500.067 377.512 499.75 378.283 499.75 379.153C499.75 380.023 500.069 380.771 500.706 381.396C501.343 382.021 502.11 382.334 503.005 382.334ZM497.722 367.5H508.278V363.723C508.278 362.256 507.765 361.01 506.739 359.984C505.714 358.958 504.468 358.445 503.003 358.445C501.538 358.445 500.292 358.958 499.264 359.984C498.236 361.01 497.722 362.256 497.722 363.723V367.5Z" fill="white"/>
</g>
<path opacity="0.2" d="M1322 882H1664V1199H1322V882Z" fill="black"/>
<rect x="1452" y="1171" width="56" height="56" rx="20" fill="black" fill-opacity="0.8"/>
<mask id="mask1_154_1015" style="mask-type:alpha" maskUnits="userSpaceOnUse" x="1460" y="1179" width="40" height="40">
<rect x="1460" y="1179" width="40" height="40" fill="#D9D9D9"/>
</mask>
<g mask="url(#mask1_154_1015)">
<path d="M1469.44 1215.67C1468.68 1215.67 1468.03 1215.4 1467.48 1214.85C1466.94 1214.31 1466.67 1213.65 1466.67 1212.89V1195.28C1466.67 1194.51 1466.94 1193.86 1467.48 1193.32C1468.03 1192.77 1468.68 1192.5 1469.44 1192.5H1471.94V1188.72C1471.94 1186.49 1472.73 1184.59 1474.3 1183.02C1475.87 1181.45 1477.77 1180.67 1480 1180.67C1482.23 1180.67 1484.13 1181.45 1485.7 1183.02C1487.27 1184.59 1488.06 1186.49 1488.06 1188.72V1192.5H1490.56C1491.32 1192.5 1491.97 1192.77 1492.52 1193.32C1493.06 1193.86 1493.33 1194.51 1493.33 1195.28V1212.89C1493.33 1213.65 1493.06 1214.31 1492.52 1214.85C1491.97 1215.4 1491.32 1215.67 1490.56 1215.67H1469.44ZM1480 1207.33C1480.9 1207.33 1481.66 1207.02 1482.3 1206.4C1482.93 1205.77 1483.25 1205.02 1483.25 1204.14C1483.25 1203.28 1482.93 1202.51 1482.29 1201.84C1481.66 1201.17 1480.89 1200.83 1480 1200.83C1479.1 1200.83 1478.34 1201.17 1477.7 1201.84C1477.07 1202.51 1476.75 1203.28 1476.75 1204.15C1476.75 1205.02 1477.07 1205.77 1477.71 1206.4C1478.34 1207.02 1479.11 1207.33 1480 1207.33ZM1474.72 1192.5H1485.28V1188.72C1485.28 1187.26 1484.76 1186.01 1483.74 1184.98C1482.71 1183.96 1481.47 1183.44 1480 1183.44C1478.54 1183.44 1477.29 1183.96 1476.26 1184.98C1475.24 1186.01 1474.72 1187.26 1474.72 1188.72V1192.5Z" fill="white"/>
</g>
<path opacity="0.2" d="M1322 575H2000V882H1322V575Z" fill="black"/>
<rect x="1972" y="771" width="56" height="56" rx="20" fill="black" fill-opacity="0.8"/>
<mask id="mask2_154_1015" style="mask-type:alpha" maskUnits="userSpaceOnUse" x="1980" y="779" width="40" height="40">
<rect x="1980" y="779" width="40" height="40" fill="#D9D9D9"/>
</mask>
<g mask="url(#mask2_154_1015)">
<path d="M1989.44 815.667C1988.68 815.667 1988.03 815.395 1987.48 814.851C1986.94 814.307 1986.67 813.653 1986.67 812.889V795.278C1986.67 794.514 1986.94 793.86 1987.48 793.316C1988.03 792.772 1988.68 792.5 1989.44 792.5H1991.94V788.723C1991.94 786.494 1992.73 784.594 1994.3 783.023C1995.87 781.452 1997.77 780.667 2000 780.667C2002.23 780.667 2004.13 781.452 2005.7 783.023C2007.27 784.594 2008.06 786.494 2008.06 788.723V792.5H2010.56C2011.32 792.5 2011.97 792.772 2012.52 793.316C2013.06 793.86 2013.33 794.514 2013.33 795.278V812.889C2013.33 813.653 2013.06 814.307 2012.52 814.851C2011.97 815.395 2011.32 815.667 2010.56 815.667H1989.44ZM2000 807.334C2000.9 807.334 2001.66 807.021 2002.3 806.395C2002.93 805.77 2003.25 805.018 2003.25 804.139C2003.25 803.278 2002.93 802.512 2002.29 801.841C2001.66 801.169 2000.89 800.834 2000 800.834C1999.1 800.834 1998.34 801.169 1997.7 801.841C1997.07 802.512 1996.75 803.283 1996.75 804.153C1996.75 805.023 1997.07 805.771 1997.71 806.396C1998.34 807.021 1999.11 807.334 2000 807.334ZM1994.72 792.5H2005.28V788.723C2005.28 787.256 2004.76 786.01 2003.74 784.984C2002.71 783.958 2001.47 783.445 2000 783.445C1998.54 783.445 1997.29 783.958 1996.26 784.984C1995.24 786.01 1994.72 787.256 1994.72 788.723V792.5Z" fill="white"/>
</g>
<rect opacity="0.2" x="571" y="244" width="126" height="133" fill="#FD88FF"/>
<rect opacity="0.2" x="808" y="244" width="126" height="131" fill="#88D4FF"/>
<rect opacity="0.2" x="697" y="245" width="114" height="131" fill="#88FF94"/>
<rect opacity="0.2" x="748" y="10" width="185" height="234" fill="#88D4FF"/>
<rect opacity="0.2" x="572" y="10" width="176" height="234" fill="#FD88FF"/>
<rect x="813" y="102" width="56" height="56" rx="20" fill="black" fill-opacity="0.8"/>
<mask id="mask3_154_1015" style="mask-type:alpha" maskUnits="userSpaceOnUse" x="817" y="106" width="48" height="48">
<rect x="817" y="106" width="48" height="48" fill="#D9D9D9"/>
</mask>
<g mask="url(#mask3_154_1015)">
<path d="M838 148.5V136H835.5C835.075 136 834.719 135.856 834.431 135.569C834.144 135.281 834 134.925 834 134.5V123.35C834 122.525 834.294 121.819 834.881 121.231C835.469 120.644 836.175 120.35 837 120.35H845C845.825 120.35 846.531 120.644 847.119 121.231C847.706 121.819 848 122.525 848 123.35V134.5C848 134.925 847.856 135.281 847.569 135.569C847.281 135.856 846.925 136 846.5 136H844V148.5C844 148.925 843.856 149.281 843.568 149.569C843.28 149.856 842.922 150 842.496 150H839.489C839.063 150 838.708 149.856 838.425 149.569C838.142 149.281 838 148.925 838 148.5ZM841.004 117.3C840.001 117.3 839.142 116.943 838.425 116.229C837.708 115.515 837.35 114.657 837.35 113.654C837.35 112.651 837.707 111.792 838.421 111.075C839.135 110.358 839.993 110 840.996 110C841.999 110 842.858 110.357 843.575 111.071C844.292 111.785 844.65 112.643 844.65 113.646C844.65 114.649 844.293 115.508 843.579 116.225C842.865 116.942 842.007 117.3 841.004 117.3Z" fill="white"/>
</g>
<rect x="631" y="99" width="56" height="56" rx="20" fill="black" fill-opacity="0.8"/>
<mask id="mask4_154_1015" style="mask-type:alpha" maskUnits="userSpaceOnUse" x="635" y="103" width="48" height="48">
<rect x="635" y="103" width="48" height="48" fill="#D9D9D9"/>
</mask>
<g mask="url(#mask4_154_1015)">
<path d="M656 145.5V136H652.05C651.55 136 651.142 135.792 650.825 135.375C650.508 134.958 650.433 134.517 650.6 134.05L655.1 119.6C655.367 118.767 655.867 118.125 656.6 117.675C657.333 117.225 658.133 117 659 117C659.867 117 660.667 117.225 661.4 117.675C662.133 118.125 662.633 118.767 662.9 119.6L667.4 134.05C667.567 134.517 667.492 134.958 667.175 135.375C666.858 135.792 666.45 136 665.95 136H662V145.5C662 145.925 661.856 146.281 661.568 146.569C661.28 146.856 660.922 147 660.496 147H657.489C657.063 147 656.708 146.856 656.425 146.569C656.142 146.281 656 145.925 656 145.5ZM659.004 114.3C658.001 114.3 657.142 113.943 656.425 113.229C655.708 112.515 655.35 111.657 655.35 110.654C655.35 109.651 655.707 108.792 656.421 108.075C657.135 107.358 657.993 107 658.996 107C659.999 107 660.858 107.357 661.575 108.071C662.292 108.785 662.65 109.643 662.65 110.646C662.65 111.649 662.293 112.508 661.579 113.225C660.865 113.942 660.007 114.3 659.004 114.3Z" fill="white"/>
</g>
<rect x="726" y="281" width="56" height="56" rx="20" fill="black" fill-opacity="0.8"/>
<mask id="mask5_154_1015" style="mask-type:alpha" maskUnits="userSpaceOnUse" x="730" y="285" width="48" height="48">
<rect x="730" y="285" width="48" height="48" fill="#D9D9D9"/>
</mask>
<g mask="url(#mask5_154_1015)">
<path d="M749.8 329C747.033 329 744.708 328.058 742.825 326.175C740.942 324.292 740 321.967 740 319.2C740 317.4 740.542 315.683 741.625 314.05C742.708 312.417 744.183 311.2 746.05 310.4C746.417 310.233 746.783 310.225 747.15 310.375C747.517 310.525 747.783 310.783 747.95 311.15C748.117 311.517 748.125 311.883 747.975 312.25C747.825 312.617 747.567 312.883 747.2 313.05C745.933 313.583 744.925 314.425 744.175 315.575C743.425 316.725 743.05 317.933 743.05 319.2C743.05 321.133 743.692 322.75 744.975 324.05C746.258 325.35 747.867 326 749.8 326C751.067 326 752.275 325.642 753.425 324.925C754.575 324.208 755.4 323.217 755.9 321.95C756.067 321.55 756.342 321.267 756.725 321.1C757.108 320.933 757.483 320.933 757.85 321.1C758.217 321.267 758.475 321.533 758.625 321.9C758.775 322.267 758.767 322.633 758.6 323C757.8 324.833 756.583 326.292 754.95 327.375C753.317 328.458 751.6 329 749.8 329ZM766.3 329C765.867 329 765.508 328.858 765.225 328.575C764.942 328.292 764.8 327.933 764.8 327.5V318.55H754.1C753.1 318.55 752.25 318.2 751.55 317.5C750.85 316.8 750.5 315.95 750.5 314.95V302.6C750.5 301.6 750.85 300.75 751.55 300.05C752.25 299.35 753.1 299 754.1 299C754.867 299 755.517 299.15 756.05 299.45C756.583 299.75 757.217 300.333 757.95 301.2C759.183 302.633 760.508 303.867 761.925 304.9C763.342 305.933 764.867 306.6 766.5 306.9C766.933 306.967 767.292 307.15 767.575 307.45C767.858 307.75 768 308.117 768 308.55C768 308.983 767.842 309.342 767.525 309.625C767.208 309.908 766.85 310.017 766.45 309.95C764.95 309.717 763.442 309.208 761.925 308.425C760.408 307.642 758.95 306.65 757.55 305.45V314.6H764.2C765.2 314.6 766.05 314.95 766.75 315.65C767.45 316.35 767.8 317.2 767.8 318.2V327.5C767.8 327.933 767.658 328.292 767.375 328.575C767.092 328.858 766.733 329 766.3 329ZM754.1 296.3C753.1 296.3 752.242 295.942 751.525 295.225C750.808 294.508 750.45 293.65 750.45 292.65C750.45 291.65 750.808 290.792 751.525 290.075C752.242 289.358 753.1 289 754.1 289C755.1 289 755.958 289.358 756.675 290.075C757.392 290.792 757.75 291.65 757.75 292.65C757.75 293.65 757.392 294.508 756.675 295.225C755.958 295.942 755.1 296.3 754.1 296.3Z" fill="white"/>
</g>
<path d="M11.6195 1042.91V1041.09H6.38753V1036.05C6.38753 1033.6 7.49153 1032.21 9.93954 1032.21H11.6195V1030.05H9.50749C5.85949 1030.05 3.93953 1032.59 3.93953 1036.1V1041.09H0.771484V1042.91H3.93953V1064.23H6.38753V1042.91H11.6195Z" fill="black"/>
<path fill-rule="evenodd" clip-rule="evenodd" d="M1046.88 180.221C1062.54 180.221 1075.23 192.912 1075.23 208.568C1075.23 224.222 1062.54 236.914 1046.88 236.914C1031.23 236.914 1018.54 224.222 1018.54 208.568C1018.54 192.912 1031.23 180.221 1046.88 180.221Z" fill="black"/>
<path d="M1050.8 224.144V195.664H1045.6L1039.8 200.704V206.304L1045.6 201.264V224.144H1050.8Z" fill="white"/>
<path fill-rule="evenodd" clip-rule="evenodd" d="M1846.03 180.221C1861.68 180.221 1874.37 192.912 1874.37 208.568C1874.37 224.222 1861.68 236.914 1846.03 236.914C1830.37 236.914 1817.68 224.222 1817.68 208.568C1817.68 192.912 1830.37 180.221 1846.03 180.221Z" fill="black"/>
<path d="M1854.54 215.969C1854.54 213.29 1854.22 210.608 1851.98 208.369C1850.82 207.209 1849.02 206.449 1846.66 206.449C1844.74 206.449 1843.14 207.169 1842.38 207.889V201.769H1853.9V197.089H1837.66V213.169H1842.42C1842.78 212.049 1843.74 210.849 1845.86 210.849C1848.38 210.849 1849.34 212.689 1849.34 215.969C1849.34 217.769 1849.14 219.289 1848.22 220.209C1847.58 220.849 1846.74 221.129 1845.74 221.129C1843.58 221.129 1842.54 219.85 1842.26 217.609H1837.06C1837.22 219.689 1837.62 221.769 1839.38 223.529C1840.62 224.769 1842.78 225.809 1845.74 225.809C1848.7 225.809 1850.74 224.769 1852.02 223.489C1854.1 221.409 1854.54 219.17 1854.54 215.969Z" fill="white"/>
<path fill-rule="evenodd" clip-rule="evenodd" d="M2203.78 180.221C2219.44 180.221 2232.13 192.912 2232.13 208.568C2232.13 224.222 2219.44 236.914 2203.78 236.914C2188.12 236.914 2175.43 224.222 2175.43 208.568C2175.43 192.912 2188.12 180.221 2203.78 180.221Z" fill="black"/>
<path d="M2212.71 215.43C2212.71 210.15 2209.07 206.99 2205.23 206.99C2204.55 206.99 2203.79 207.07 2203.11 207.35L2209.03 195.59H2203.35L2197.35 207.91C2196.07 210.51 2194.95 212.91 2194.95 215.51C2194.95 221.15 2198.79 224.31 2203.83 224.31C2208.87 224.31 2212.71 221.03 2212.71 215.43ZM2207.51 215.47C2207.51 218.11 2205.95 219.63 2203.83 219.63C2201.71 219.63 2200.15 218.11 2200.15 215.47C2200.15 212.83 2201.71 211.31 2203.83 211.31C2206.03 211.31 2207.51 212.95 2207.51 215.47Z" fill="white"/>
<path fill-rule="evenodd" clip-rule="evenodd" d="M2655.34 710.117C2671 710.117 2683.69 722.808 2683.69 738.464C2683.69 754.119 2671 766.811 2655.34 766.811C2639.68 766.811 2626.99 754.119 2626.99 738.464C2626.99 722.808 2639.68 710.117 2655.34 710.117Z" fill="black"/>
<path d="M2665.71 731.668V726.988H2647.59V736.147H2652.55V731.668H2660.07L2650.83 755.468H2656.47L2665.71 731.668Z" fill="white"/>
<path fill-rule="evenodd" clip-rule="evenodd" d="M2178.88 710.117C2194.54 710.117 2207.23 722.808 2207.23 738.464C2207.23 754.119 2194.54 766.811 2178.88 766.811C2163.23 766.811 2150.54 754.119 2150.54 738.464C2150.54 722.808 2163.23 710.117 2178.88 710.117Z" fill="black"/>
<path d="M2188.64 745.187C2188.64 741.707 2186.6 739.826 2185.04 738.786C2186.48 737.786 2188.24 735.907 2188.24 732.867C2188.24 727.827 2184.28 724.747 2179.52 724.747C2174.76 724.747 2170.76 727.827 2170.76 732.867C2170.76 735.907 2172.52 737.786 2173.96 738.786C2172.4 739.826 2170.4 741.707 2170.4 745.187C2170.4 750.707 2174.48 753.707 2179.52 753.707C2184.56 753.707 2188.64 750.707 2188.64 745.187ZM2183.44 745.107C2183.44 747.307 2181.72 749.027 2179.52 749.027C2177.32 749.027 2175.6 747.307 2175.6 745.107C2175.6 742.907 2177.32 741.146 2179.52 741.146C2181.72 741.146 2183.44 742.907 2183.44 745.107ZM2183.04 733.027C2183.04 735.107 2181.56 736.627 2179.52 736.627C2177.48 736.627 2175.96 735.107 2175.96 733.027C2175.96 730.987 2177.48 729.426 2179.52 729.426C2181.56 729.426 2183.04 730.987 2183.04 733.027Z" fill="white"/>
<path fill-rule="evenodd" clip-rule="evenodd" d="M1134.88 1103.22C1150.54 1103.22 1163.23 1115.91 1163.23 1131.57C1163.23 1147.22 1150.54 1159.91 1134.88 1159.91C1119.23 1159.91 1106.54 1147.22 1106.54 1131.57C1106.54 1115.91 1119.23 1103.22 1134.88 1103.22Z" fill="black"/>
<path d="M1126.76 1148.07V1119.59H1121.56L1115.76 1124.63V1130.23L1121.56 1125.19V1148.07H1126.76ZM1152.88 1139.83V1127.83C1152.88 1122.39 1148.88 1119.35 1144.24 1119.35C1139.6 1119.35 1135.56 1122.39 1135.56 1127.83V1139.83C1135.56 1145.27 1139.6 1148.31 1144.24 1148.31C1148.88 1148.31 1152.88 1145.27 1152.88 1139.83ZM1147.68 1139.79C1147.68 1142.19 1146.32 1143.63 1144.24 1143.63C1142.16 1143.63 1140.76 1142.19 1140.76 1139.79V1127.91C1140.76 1125.51 1142.16 1124.03 1144.24 1124.03C1146.32 1124.03 1147.68 1125.51 1147.68 1127.91V1139.79Z" fill="white"/>
<path fill-rule="evenodd" clip-rule="evenodd" d="M1851.78 1103.22C1867.44 1103.22 1880.13 1115.91 1880.13 1131.57C1880.13 1147.22 1867.44 1159.91 1851.78 1159.91C1836.12 1159.91 1823.43 1147.22 1823.43 1131.57C1823.43 1115.91 1836.12 1103.22 1851.78 1103.22Z" fill="black"/>
<path d="M1861.83 1126.65C1861.83 1121.01 1857.99 1117.85 1852.95 1117.85C1847.91 1117.85 1844.07 1121.13 1844.07 1126.73C1844.07 1132.01 1847.75 1135.17 1851.59 1135.17C1852.27 1135.17 1853.03 1135.09 1853.71 1134.81L1847.79 1146.57H1853.43L1859.47 1134.25C1860.75 1131.65 1861.83 1129.25 1861.83 1126.65ZM1856.63 1126.69C1856.63 1129.33 1855.07 1130.85 1852.95 1130.85C1850.75 1130.85 1849.27 1129.21 1849.27 1126.69C1849.27 1124.05 1850.83 1122.53 1852.95 1122.53C1855.07 1122.53 1856.63 1124.05 1856.63 1126.69Z" fill="white"/>
<path d="M939.002 572.81H355.002V8.81018H2903V1336.81H939.002V572.81Z" stroke="black" stroke-width="5.66933" stroke-linecap="round" stroke-linejoin="round"/>
<path d="M353.75 375.312H470.75" stroke="black" stroke-width="5.66933" stroke-linecap="round" stroke-linejoin="round"/>
<path d="M536 376H591" stroke="black" stroke-width="5.66933" stroke-linecap="round" stroke-linejoin="round"/>
<path d="M571.623 375.499V7.99901" stroke="black" stroke-width="5.66933" stroke-linecap="round" stroke-linejoin="round"/>
<path d="M634 376L740 376" stroke="black" stroke-width="5.66933" stroke-linecap="round" stroke-linejoin="round"/>
<path d="M774.623 374.999L851 375" stroke="black" stroke-width="5.66933" stroke-linecap="round" stroke-linejoin="round"/>
<path d="M889 374H933V3" stroke="black" stroke-width="5.66933" stroke-linecap="round" stroke-linejoin="round"/>
<path d="M635.123 242.999H851.123" stroke="black" stroke-width="5.66933" stroke-linecap="round" stroke-linejoin="round"/>
<path d="M590.623 242.999H571.623" stroke="black" stroke-width="5.66933" stroke-linecap="round" stroke-linejoin="round"/>
<path d="M895.123 242.999H932.123" stroke="black" stroke-width="5.66933" stroke-linecap="round" stroke-linejoin="round"/>
<path d="M695.623 242.999V375.999" stroke="black" stroke-width="5.66933" stroke-linecap="round" stroke-linejoin="round"/>
<path d="M810.623 242.999V374.999" stroke="black" stroke-width="5.66933" stroke-linecap="round" stroke-linejoin="round"/>
<path d="M904 374.437H947V417.437H904V374.437Z" stroke="black" stroke-width="5.66933" stroke-linecap="round" stroke-linejoin="round"/>
<path d="M933 421V450" stroke="black" stroke-width="5.66933" stroke-linecap="round" stroke-linejoin="round"/>
<path d="M930.623 572.499V531.499" stroke="black" stroke-width="5.66933" stroke-linecap="round" stroke-linejoin="round"/>
<path d="M939.123 573.499H1034.62" stroke="black" stroke-width="5.66933" stroke-linecap="round" stroke-linejoin="round"/>
<path d="M1086.62 573.999L2000.12 573.937" stroke="black" stroke-width="5.66933" stroke-linecap="round" stroke-linejoin="round"/>
<path d="M1268.25 573.123L1268.37 508.247" stroke="black" stroke-width="5.66933" stroke-linecap="round" stroke-linejoin="round"/>
<path d="M1268.37 469.747V433.747" stroke="black" stroke-width="5.66933" stroke-linecap="round" stroke-linejoin="round"/>
<path d="M1312.12 408.747H1344.87" stroke="black" stroke-width="5.66933" stroke-linecap="round" stroke-linejoin="round"/>
<path d="M1383.87 407.247H1631.87" stroke="black" stroke-width="5.66933" stroke-linecap="round" stroke-linejoin="round"/>
<path d="M1266.87 389.247H1310.87V433.247H1266.87V389.247Z" stroke="black" stroke-width="5.66933" stroke-linecap="round" stroke-linejoin="round"/>
<path d="M1632.37 389.247H1676.37V433.247H1632.37V389.247Z" stroke="black" stroke-width="5.66933" stroke-linecap="round" stroke-linejoin="round"/>
<path d="M1320.34 574.736L1320.87 895.746H937.871" stroke="black" stroke-width="5.66933" stroke-linecap="round" stroke-linejoin="round"/>
<path d="M1321.87 894.746V1198.73" stroke="black" stroke-width="5.66933" stroke-linecap="round" stroke-linejoin="round"/>
<path d="M1321.87 1295.59V1335.59" stroke="black" stroke-width="5.66933" stroke-linecap="round" stroke-linejoin="round"/>
<path d="M1321.87 1198.75H1439.87" stroke="black" stroke-width="5.66933" stroke-linecap="round" stroke-linejoin="round"/>
<path d="M1516.87 1198.75H1665.36V1232.75" stroke="black" stroke-width="5.66933" stroke-linecap="round" stroke-linejoin="round"/>
<path d="M1665.36 1296.34V1334.34" stroke="black" stroke-width="5.66933" stroke-linecap="round" stroke-linejoin="round"/>
<path d="M1664.87 1199.75V883.746H2000.87V840.745" stroke="black" stroke-width="5.66933" stroke-linecap="round" stroke-linejoin="round"/>
<path d="M1999.87 756.747V573.685" stroke="black" stroke-width="5.66933" stroke-linecap="round" stroke-linejoin="round"/>
<path d="M1999.37 940.747V990.951" stroke="black" stroke-width="5.66933" stroke-linecap="round" stroke-linejoin="round"/>
<path d="M1999.87 1053.24V1111.81" stroke="black" stroke-width="5.66933" stroke-linecap="round" stroke-linejoin="round"/>
<path d="M1999.37 1174.1V1238.25" stroke="black" stroke-width="5.66933" stroke-linecap="round" stroke-linejoin="round"/>
<path d="M2000.87 1308.29V1332.87" stroke="black" stroke-width="5.66933" stroke-linecap="round" stroke-linejoin="round"/>
<path d="M2003.37 389.247H2047.37V433.247H2003.37V389.247Z" stroke="black" stroke-width="5.66933" stroke-linecap="round" stroke-linejoin="round"/>
<path d="M2369.37 389.247H2413.37V433.247H2369.37V389.247Z" stroke="black" stroke-width="5.66933" stroke-linecap="round" stroke-linejoin="round"/>
<path d="M2023.87 386.997V7.99706" stroke="black" stroke-width="5.66933" stroke-linecap="round" stroke-linejoin="round" stroke-dasharray="11.33 28.35"/>
<path d="M2411.87 141.107V4.99673" stroke="black" stroke-width="5.66933" stroke-linecap="round" stroke-linejoin="round" stroke-dasharray="11.33 28.35"/>
<path d="M2411.75 387.622L2411.87 268.997" stroke="black" stroke-width="5.66933" stroke-linecap="round" stroke-linejoin="round" stroke-dasharray="11.33 28.35"/>
<path d="M2048.37 426.497C2113.92 322.649 2302.33 328.677 2364.87 426.497" stroke="black" stroke-width="5.66933" stroke-linecap="round" stroke-linejoin="round" stroke-dasharray="11.33 28.35"/>
<path d="M2412.87 565.997V432.748" stroke="black" stroke-width="5.66933" stroke-linecap="round" stroke-linejoin="round" stroke-dasharray="11.33 28.35"/>
<path d="M2415.37 748.997V575.997" stroke="black" stroke-width="5.66933" stroke-linecap="round" stroke-linejoin="round"/>
<path d="M2415.37 976.606V813.995" stroke="black" stroke-width="5.66933" stroke-linecap="round" stroke-linejoin="round"/>
<path d="M2415.37 1119V1076" stroke="black" stroke-width="5.66933" stroke-linecap="round" stroke-linejoin="round"/>
<path d="M2415.37 1334.61V1194" stroke="black" stroke-width="5.66933" stroke-linecap="round" stroke-linejoin="round"/>
<path d="M1405.62 509.746H1570.12V571.746H1405.62V509.746Z" stroke="black" stroke-width="5.66933" stroke-linecap="round" stroke-linejoin="round"/>
<path d="M1424.37 510.997L1424.12 571.746" stroke="black" stroke-width="5.66933" stroke-linecap="round" stroke-linejoin="round"/>
<path d="M1442.62 511.496V571.746" stroke="black" stroke-width="5.66933" stroke-linecap="round" stroke-linejoin="round"/>
<path d="M1461.12 511.746V571.746" stroke="black" stroke-width="5.66933" stroke-linecap="round" stroke-linejoin="round"/>
<path d="M1479.37 511.496L1479.62 571.746" stroke="black" stroke-width="5.66933" stroke-linecap="round" stroke-linejoin="round"/>
<path d="M1498.62 510.997L1498.12 571.746" stroke="black" stroke-width="5.66933" stroke-linecap="round" stroke-linejoin="round"/>
<path d="M1516.12 511.496L1516.62 571.746" stroke="black" stroke-width="5.66933" stroke-linecap="round" stroke-linejoin="round"/>
<path d="M1535.12 511.997V571.746" stroke="black" stroke-width="5.66933" stroke-linecap="round" stroke-linejoin="round"/>
<path d="M1554.08 510.941L1553.62 571.746" stroke="black" stroke-width="5.66933" stroke-linecap="round" stroke-linejoin="round"/>
<path d="M1107.07 196.31C1179.37 171.28 1250.39 159.3 1320.15 159.982C1322.13 160.002 1324.11 160.032 1326.09 160.072V160.866C1324.11 160.826 1322.13 160.795 1320.15 160.776C1250.34 160.094 1179.27 172.107 1106.91 197.208L1106.48 197.358L1060.68 10.4665C1059.7 10.5058 1087.09 116.063 1107.07 196.31Z" fill="black"/>
<path d="M1107.07 196.31C1179.37 171.28 1250.39 159.3 1320.15 159.982C1322.13 160.002 1324.11 160.032 1326.09 160.072V160.866C1324.11 160.826 1322.13 160.795 1320.15 160.776C1250.34 160.094 1179.27 172.107 1106.91 197.208L1106.48 197.358L1060.68 10.4665C1059.7 10.5058 1087.09 116.063 1107.07 196.31Z" stroke="black" stroke-width="5.66933" stroke-linecap="round" stroke-linejoin="round"/>
<path d="M1132.86 185.915L1090.58 10.5478" stroke="black" stroke-width="5.66933" stroke-linecap="round" stroke-linejoin="round"/>
<path d="M1191.49 172.301L1150.12 9.89257" stroke="black" stroke-width="5.66933" stroke-linecap="round" stroke-linejoin="round"/>
<path d="M1221.93 165.776L1181.44 11.3011" stroke="black" stroke-width="5.66933" stroke-linecap="round" stroke-linejoin="round"/>
<path d="M1248.78 162.865L1210.66 10.3574" stroke="black" stroke-width="5.66933" stroke-linecap="round" stroke-linejoin="round"/>
<path d="M1275.27 161.734L1236.69 9.42968" stroke="black" stroke-width="5.66933" stroke-linecap="round" stroke-linejoin="round"/>
<path d="M1545.1 196.31C1472.8 171.28 1401.79 159.3 1332.02 159.982C1330.04 160.002 1328.06 160.032 1326.09 160.072V160.866C1328.06 160.826 1330.04 160.795 1332.03 160.776C1401.84 160.094 1472.9 172.107 1545.26 197.208L1545.7 197.358L1589.86 10.4665C1588.45 16.6391 1589.49 12.5709 1545.1 196.31Z" fill="black"/>
<path d="M1545.1 196.31C1472.8 171.28 1401.79 159.3 1332.02 159.982C1330.04 160.002 1328.06 160.032 1326.09 160.072V160.866C1328.06 160.826 1330.04 160.795 1332.03 160.776C1401.84 160.094 1472.9 172.107 1545.26 197.208L1545.7 197.358L1589.86 10.4665C1588.45 16.6391 1589.49 12.5709 1545.1 196.31Z" stroke="black" stroke-width="5.66933" stroke-linecap="round" stroke-linejoin="round"/>
<path d="M1100.86 310.36V244.36H1137.94V310.36H1100.86Z" stroke="black" stroke-width="5.66933" stroke-linecap="round" stroke-linejoin="round"/>
<path d="M748.369 238.489V9.05175" stroke="black" stroke-width="5.66933" stroke-linecap="round" stroke-linejoin="round"/>
<path d="M1161.81 177.662L1121.17 10.5482" stroke="black" stroke-width="5.66933" stroke-linecap="round" stroke-linejoin="round"/>
<path d="M1518.14 184.897L1560.41 9.53027" stroke="black" stroke-width="5.66933" stroke-linecap="round" stroke-linejoin="round"/>
<path d="M1459.5 171.282L1500.87 8.87402" stroke="black" stroke-width="5.66933" stroke-linecap="round" stroke-linejoin="round"/>
<path d="M1429.06 164.759L1469.55 10.2835" stroke="black" stroke-width="5.66933" stroke-linecap="round" stroke-linejoin="round"/>
<path d="M1402.21 161.848L1440.34 9.33919" stroke="black" stroke-width="5.66933" stroke-linecap="round" stroke-linejoin="round"/>
<path d="M1375.72 160.716L1413.69 9.78678" stroke="black" stroke-width="5.66933" stroke-linecap="round" stroke-linejoin="round"/>
<path d="M1489.19 176.644L1529.82 9.52962" stroke="black" stroke-width="5.66933" stroke-linecap="round" stroke-linejoin="round"/>
<path d="M1675.86 385.358V7.35839" stroke="black" stroke-width="5.66933" stroke-linecap="round" stroke-linejoin="round"/>
<path d="M1675.86 431.358V572.858" stroke="black" stroke-width="5.66933" stroke-linecap="round" stroke-linejoin="round"/>
<rect x="1298" y="57" width="56" height="56" rx="20" fill="#3879F6"/>
<path d="M1333.68 89.436C1334.07 89.772 1334.38 90.252 1334.62 90.876C1334.86 91.5 1334.98 92.16 1334.98 92.856C1334.98 94.2 1334.49 95.352 1333.5 96.312C1332.54 97.248 1330.97 97.716 1328.79 97.716C1327.97 97.716 1326.89 97.62 1325.55 97.428C1324.06 97.236 1322.82 97.14 1321.84 97.14C1320.09 97.14 1318.61 97.392 1317.41 97.896L1317.45 97.86L1317.38 97.896L1316.22 96.996C1316.46 95.7 1316.9 94.5 1317.52 93.396C1318.14 92.292 1318.82 91.32 1319.54 90.48C1320.26 89.616 1321.22 88.584 1322.42 87.384C1323.59 86.208 1324.52 85.224 1325.19 84.432C1325.88 83.616 1326.46 82.728 1326.92 81.768C1327.37 80.784 1327.6 79.728 1327.6 78.6C1327.6 77.232 1327.28 76.212 1326.63 75.54C1325.98 74.844 1325.12 74.496 1324.04 74.496C1322.64 74.496 1321.56 75.024 1320.8 76.08C1321.42 76.248 1321.92 76.608 1322.31 77.16C1322.69 77.688 1322.88 78.252 1322.88 78.852C1322.88 79.716 1322.54 80.424 1321.84 80.976C1321.17 81.528 1320.39 81.804 1319.5 81.804C1318.56 81.804 1317.76 81.48 1317.09 80.832C1316.42 80.16 1316.08 79.26 1316.08 78.132C1316.08 77.028 1316.45 76.008 1317.2 75.072C1317.96 74.136 1319.03 73.392 1320.4 72.84C1321.79 72.264 1323.38 71.976 1325.15 71.976C1327.77 71.976 1329.9 72.6 1331.56 73.848C1333.24 75.072 1334.08 76.86 1334.08 79.212C1334.08 80.724 1333.72 82.056 1333 83.208C1332.3 84.36 1331.44 85.344 1330.41 86.16C1329.38 86.952 1328.01 87.876 1326.3 88.932C1324.79 89.892 1323.59 90.708 1322.7 91.38C1321.82 92.052 1321.08 92.808 1320.51 93.648C1321.25 93.336 1322.13 93.072 1323.14 92.856C1324.14 92.616 1325.07 92.496 1325.91 92.496H1327.82C1328.99 92.496 1330.02 92.232 1330.91 91.704C1331.82 91.152 1332.41 90.396 1332.68 89.436H1333.68Z" fill="white"/>
<rect x="1328" y="508" width="56" height="56" rx="20" fill="#3879F6"/>
<path d="M1358.72 535.18C1360.71 535.18 1362.31 535.72 1363.51 536.8C1364.73 537.856 1365.34 539.404 1365.34 541.444C1365.34 542.908 1364.89 544.192 1363.98 545.296C1363.06 546.4 1361.79 547.264 1360.16 547.888C1358.55 548.488 1356.73 548.788 1354.69 548.788C1353.01 548.788 1351.51 548.572 1350.19 548.14C1348.87 547.708 1347.82 547.084 1347.06 546.268C1346.31 545.452 1345.94 544.492 1345.94 543.388C1345.94 542.38 1346.22 541.6 1346.77 541.048C1347.34 540.496 1348.06 540.22 1348.93 540.22C1349.74 540.22 1350.4 540.46 1350.91 540.94C1351.44 541.42 1351.7 542.008 1351.7 542.704C1351.7 543.088 1351.62 543.496 1351.45 543.928C1351.28 544.36 1351.03 544.72 1350.69 545.008C1350.96 545.224 1351.35 545.368 1351.88 545.44C1352.43 545.488 1353.18 545.512 1354.11 545.512C1355.58 545.512 1356.7 545.152 1357.5 544.432C1358.29 543.688 1358.68 542.68 1358.68 541.408C1358.68 540.016 1358.34 538.84 1357.64 537.88C1356.94 536.92 1355.86 536.428 1354.4 536.404C1353.49 536.644 1352.78 536.812 1352.28 536.908L1351.56 534.748C1353.69 534.196 1355.16 533.512 1355.95 532.696C1356.74 531.88 1357.14 530.872 1357.14 529.672C1357.14 528.52 1356.8 527.584 1356.13 526.864C1355.48 526.144 1354.62 525.784 1353.54 525.784C1352.94 525.784 1352.42 525.868 1351.99 526.036C1351.58 526.204 1351.21 526.504 1350.87 526.936C1351.21 527.08 1351.5 527.332 1351.74 527.692C1352 528.028 1352.13 528.424 1352.13 528.88C1352.13 529.48 1351.88 530.032 1351.38 530.536C1350.87 531.04 1350.19 531.292 1349.32 531.292C1348.41 531.292 1347.7 531.004 1347.2 530.428C1346.7 529.852 1346.44 529.108 1346.44 528.196C1346.44 527.14 1346.83 526.228 1347.6 525.46C1348.36 524.668 1349.4 524.068 1350.69 523.66C1351.99 523.252 1353.42 523.048 1354.98 523.048C1357.52 523.048 1359.58 523.564 1361.17 524.596C1362.75 525.628 1363.54 527.032 1363.54 528.808C1363.54 530.104 1363.12 531.292 1362.28 532.372C1361.44 533.428 1359.99 534.376 1357.93 535.216L1358.72 535.18Z" fill="white"/>
<rect x="2405" y="755" width="20" height="50" rx="5" fill="black"/>
<rect x="2405" y="1130" width="20" height="50" rx="5" fill="black"/>
<rect x="1031" y="549" width="56" height="56" rx="20" fill="black" fill-opacity="0.8"/>
<mask id="mask6_154_1015" style="mask-type:alpha" maskUnits="userSpaceOnUse" x="1039" y="557" width="40" height="40">
<rect x="1039" y="557" width="40" height="40" fill="#D9D9D9"/>
</mask>
<g mask="url(#mask6_154_1015)">
<path d="M1048.44 593.667C1047.68 593.667 1047.03 593.395 1046.48 592.851C1045.94 592.307 1045.67 591.653 1045.67 590.889V573.278C1045.67 572.514 1045.94 571.86 1046.48 571.316C1047.03 570.772 1047.68 570.5 1048.44 570.5H1050.94V566.723C1050.94 564.494 1051.73 562.594 1053.3 561.023C1054.87 559.452 1056.77 558.667 1059 558.667C1061.23 558.667 1063.13 559.452 1064.7 561.023C1066.27 562.594 1067.06 564.494 1067.06 566.723V570.5H1069.56C1070.32 570.5 1070.97 570.772 1071.52 571.316C1072.06 571.86 1072.33 572.514 1072.33 573.278V590.889C1072.33 591.653 1072.06 592.307 1071.52 592.851C1070.97 593.395 1070.32 593.667 1069.56 593.667H1048.44ZM1059 585.334C1059.9 585.334 1060.66 585.021 1061.3 584.395C1061.93 583.77 1062.25 583.018 1062.25 582.139C1062.25 581.278 1061.93 580.512 1061.29 579.841C1060.66 579.169 1059.89 578.834 1059 578.834C1058.1 578.834 1057.34 579.169 1056.7 579.841C1056.07 580.512 1055.75 581.283 1055.75 582.153C1055.75 583.023 1056.07 583.771 1056.71 584.396C1057.34 585.021 1058.11 585.334 1059 585.334ZM1053.72 570.5H1064.28V566.723C1064.28 565.256 1063.76 564.01 1062.74 562.984C1061.71 561.958 1060.47 561.445 1059 561.445C1057.54 561.445 1056.29 561.958 1055.26 562.984C1054.24 564.01 1053.72 565.256 1053.72 566.723V570.5Z" fill="white"/>
</g>
</svg>
