<svg width="2555" height="1335" viewBox="0 0 2555 1335" fill="none" xmlns="http://www.w3.org/2000/svg">
<path d="M587.131 567.811H3.13086V3.81051H2551.13V1331.81H587.131V567.811Z" stroke="black" stroke-width="5.66933" stroke-linecap="round" stroke-linejoin="round"/>
<path fill-rule="evenodd" clip-rule="evenodd" d="M1161.01 214.219C1176.67 214.219 1189.36 226.91 1189.36 242.566C1189.36 258.221 1176.67 270.912 1161.01 270.912C1145.36 270.912 1132.67 258.221 1132.67 242.566C1132.67 226.91 1145.36 214.219 1161.01 214.219Z" fill="black"/>
<path d="M1169.82 256.768V252.088H1158.82L1166.78 242.848C1168.74 240.568 1169.82 239.088 1169.82 236.327C1169.82 231.208 1166.22 228.048 1161.18 228.048C1156.3 228.048 1152.5 231.168 1152.5 236.368H1157.7C1157.7 233.608 1159.46 232.728 1161.18 232.728C1163.38 232.728 1164.62 234.168 1164.62 236.288C1164.62 237.608 1164.18 238.487 1163.14 239.728L1152.5 252.088V256.768H1169.82Z" fill="white"/>
<path fill-rule="evenodd" clip-rule="evenodd" d="M1490.01 681.22C1505.67 681.22 1518.36 693.911 1518.36 709.567C1518.36 725.222 1505.67 737.913 1490.01 737.913C1474.36 737.913 1461.67 725.222 1461.67 709.567C1461.67 693.911 1474.36 681.22 1490.01 681.22Z" fill="black"/>
<path d="M1499.04 717.329C1499.04 713.889 1497.4 711.929 1495.36 710.849C1497.24 709.849 1498.64 708.089 1498.64 705.009C1498.64 700.209 1495 696.849 1489.96 696.849C1485.16 696.849 1481.36 699.889 1481.24 704.969H1486.44C1486.56 702.809 1488 701.529 1489.96 701.529C1491.84 701.529 1493.44 702.769 1493.44 705.169C1493.44 707.169 1492.36 708.729 1489.84 708.729H1489.08V713.249H1489.84C1492.4 713.249 1493.84 714.809 1493.84 717.169C1493.84 719.729 1492.24 721.129 1490 721.129C1487.96 721.129 1486.2 719.969 1486.12 717.409H1480.92C1481 723.369 1485.36 725.809 1490 725.809C1494.88 725.809 1499.04 723.009 1499.04 717.329Z" fill="white"/>
<path fill-rule="evenodd" clip-rule="evenodd" d="M2316.01 766.22C2331.67 766.22 2344.36 778.911 2344.36 794.567C2344.36 810.222 2331.67 822.913 2316.01 822.913C2300.36 822.913 2287.67 810.222 2287.67 794.567C2287.67 778.911 2300.36 766.22 2316.01 766.22Z" fill="black"/>
<path d="M2324.49 804.529V799.608H2321.89V794.288H2316.89V799.608H2310.93L2320.69 780.089H2315.01L2305.25 799.608V804.529H2316.89V808.568H2321.89V804.529H2324.49Z" fill="white"/>
<path d="M587.252 568.498H682.752" stroke="black" stroke-width="5.66933" stroke-linecap="round" stroke-linejoin="round"/>
<path d="M734.752 568.998L1527.25 568.436" stroke="black" stroke-width="5.66933" stroke-linecap="round" stroke-linejoin="round"/>
<path d="M1032 402.246H1280" stroke="black" stroke-width="5.66933" stroke-linecap="round" stroke-linejoin="round"/>
<path d="M1280.5 384.246H1324.5V428.246H1280.5V384.246Z" stroke="black" stroke-width="5.66933" stroke-linecap="round" stroke-linejoin="round"/>
<path d="M968.466 569.737L969 890.746H586" stroke="black" stroke-width="5.66933" stroke-linecap="round" stroke-linejoin="round"/>
<path d="M970 889.746V1025.13" stroke="black" stroke-width="5.66933" stroke-linecap="round" stroke-linejoin="round"/>
<path d="M970 1117.13V1330.59" stroke="black" stroke-width="5.66933" stroke-linecap="round" stroke-linejoin="round"/>
<path d="M968.9 821.746H1509.59" stroke="black" stroke-width="5.66933" stroke-linecap="round" stroke-linejoin="round"/>
<path d="M1313.49 1116.13V1329.34" stroke="black" stroke-width="5.66933" stroke-linecap="round" stroke-linejoin="round"/>
<path d="M1652 1326.75L1652.5 512.01H1682L1681.93 428.209" stroke="black" stroke-width="5.66933" stroke-linecap="round" stroke-linejoin="round"/>
<path d="M1651.5 384.246H1695.5V428.246H1651.5V384.246Z" stroke="black" stroke-width="5.66933" stroke-linecap="round" stroke-linejoin="round"/>
<path d="M2017.5 384.246H2061.5V428.246H2017.5V384.246Z" stroke="black" stroke-width="5.66933" stroke-linecap="round" stroke-linejoin="round"/>
<path d="M1696.5 421.496C1762.04 317.648 1950.46 323.676 2013 421.496" stroke="black" stroke-width="5.66933" stroke-linecap="round" stroke-linejoin="round" stroke-dasharray="11.33 28.35"/>
<path d="M1053.75 504.746H1218.25V566.746H1053.75V504.746Z" stroke="black" stroke-width="5.66933" stroke-linecap="round" stroke-linejoin="round"/>
<path d="M1072.5 505.996L1072.25 566.746" stroke="black" stroke-width="5.66933" stroke-linecap="round" stroke-linejoin="round"/>
<path d="M1090.75 506.495V566.746" stroke="black" stroke-width="5.66933" stroke-linecap="round" stroke-linejoin="round"/>
<path d="M1109.25 506.745V566.746" stroke="black" stroke-width="5.66933" stroke-linecap="round" stroke-linejoin="round"/>
<path d="M1127.5 506.495L1127.75 566.746" stroke="black" stroke-width="5.66933" stroke-linecap="round" stroke-linejoin="round"/>
<path d="M1146.75 505.996L1146.25 566.746" stroke="black" stroke-width="5.66933" stroke-linecap="round" stroke-linejoin="round"/>
<path d="M1164.25 506.495L1164.75 566.746" stroke="black" stroke-width="5.66933" stroke-linecap="round" stroke-linejoin="round"/>
<path d="M1183.25 506.996V566.746" stroke="black" stroke-width="5.66933" stroke-linecap="round" stroke-linejoin="round"/>
<path d="M1202.2 505.941L1201.75 566.746" stroke="black" stroke-width="5.66933" stroke-linecap="round" stroke-linejoin="round"/>
<path d="M2057.4 586.051H2130.5V1180.13H2085.4" stroke="black" stroke-width="5.66933" stroke-linecap="round" stroke-linejoin="round"/>
<path d="M1323.99 426.358V1027.13" stroke="black" stroke-width="5.66933" stroke-linecap="round" stroke-linejoin="round"/>
<path d="M2304 384.246H2552" stroke="black" stroke-width="5.66933" stroke-linecap="round" stroke-linejoin="round"/>
<path d="M2018 384.246H2133.02" stroke="black" stroke-width="5.66933" stroke-linecap="round" stroke-linejoin="round"/>
<path d="M2058 1325.97L2057.5 513.231H2028L2028.07 429.43" stroke="black" stroke-width="5.66933" stroke-linecap="round" stroke-linejoin="round"/>
<path d="M1598.9 568.937H1652" stroke="black" stroke-width="5.66933" stroke-linecap="round" stroke-linejoin="round"/>
<path d="M1598.9 822.937H1652" stroke="black" stroke-width="5.66933" stroke-linecap="round" stroke-linejoin="round"/>
<path d="M1401.9 568.745H1501.9V630.746H1401.9V568.745Z" stroke="black" stroke-width="5.66933" stroke-linecap="round" stroke-linejoin="round"/>
<path d="M1439.92 569.996L1439.67 630.746" stroke="black" stroke-width="5.66933" stroke-linecap="round" stroke-linejoin="round"/>
<path d="M1461.08 570.495V630.746" stroke="black" stroke-width="5.66933" stroke-linecap="round" stroke-linejoin="round"/>
<path d="M1482.25 570.745V630.746" stroke="black" stroke-width="5.66933" stroke-linecap="round" stroke-linejoin="round"/>
<path d="M1418.5 569.996L1418.25 630.746" stroke="black" stroke-width="5.66933" stroke-linecap="round" stroke-linejoin="round"/>
<path d="M958.754 493.634L959.004 4" stroke="black" stroke-width="5.66933" stroke-linecap="round" stroke-linejoin="round"/>
<path fill-rule="evenodd" clip-rule="evenodd" d="M1492.01 1037.22C1507.67 1037.22 1520.36 1049.91 1520.36 1065.57C1520.36 1081.22 1507.67 1093.91 1492.01 1093.91C1476.36 1093.91 1463.67 1081.22 1463.67 1065.57C1463.67 1049.91 1476.36 1037.22 1492.01 1037.22Z" fill="black"/>
<path d="M1501.04 1073.33C1501.04 1069.89 1499.4 1067.93 1497.36 1066.85C1499.24 1065.85 1500.64 1064.09 1500.64 1061.01C1500.64 1056.21 1497 1052.85 1491.96 1052.85C1487.16 1052.85 1483.36 1055.89 1483.24 1060.97H1488.44C1488.56 1058.81 1490 1057.53 1491.96 1057.53C1493.84 1057.53 1495.44 1058.77 1495.44 1061.17C1495.44 1063.17 1494.36 1064.73 1491.84 1064.73H1491.08V1069.25H1491.84C1494.4 1069.25 1495.84 1070.81 1495.84 1073.17C1495.84 1075.73 1494.24 1077.13 1492 1077.13C1489.96 1077.13 1488.2 1075.97 1488.12 1073.41H1482.92C1483 1079.37 1487.36 1081.81 1492 1081.81C1496.88 1081.81 1501.04 1079.01 1501.04 1073.33Z" fill="white"/>
<path fill-rule="evenodd" clip-rule="evenodd" d="M1132.01 1037.22C1147.67 1037.22 1160.36 1049.91 1160.36 1065.57C1160.36 1081.22 1147.67 1093.91 1132.01 1093.91C1116.36 1093.91 1103.67 1081.22 1103.67 1065.57C1103.67 1049.91 1116.36 1037.22 1132.01 1037.22Z" fill="black"/>
<path d="M1141.04 1073.33C1141.04 1069.89 1139.4 1067.93 1137.36 1066.85C1139.24 1065.85 1140.64 1064.09 1140.64 1061.01C1140.64 1056.21 1137 1052.85 1131.96 1052.85C1127.16 1052.85 1123.36 1055.89 1123.24 1060.97H1128.44C1128.56 1058.81 1130 1057.53 1131.96 1057.53C1133.84 1057.53 1135.44 1058.77 1135.44 1061.17C1135.44 1063.17 1134.36 1064.73 1131.84 1064.73H1131.08V1069.25H1131.84C1134.4 1069.25 1135.84 1070.81 1135.84 1073.17C1135.84 1075.73 1134.24 1077.13 1132 1077.13C1129.96 1077.13 1128.2 1075.97 1128.12 1073.41H1122.92C1123 1079.37 1127.36 1081.81 1132 1081.81C1136.88 1081.81 1141.04 1079.01 1141.04 1073.33Z" fill="white"/>
<path fill-rule="evenodd" clip-rule="evenodd" d="M782.013 1037.22C797.668 1037.22 810.359 1049.91 810.359 1065.57C810.359 1081.22 797.668 1093.91 782.013 1093.91C766.357 1093.91 753.666 1081.22 753.666 1065.57C753.666 1049.91 766.357 1037.22 782.013 1037.22Z" fill="black"/>
<path d="M791.036 1073.33C791.036 1069.89 789.396 1067.93 787.356 1066.85C789.236 1065.85 790.636 1064.09 790.636 1061.01C790.636 1056.21 786.996 1052.85 781.956 1052.85C777.156 1052.85 773.356 1055.89 773.236 1060.97H778.436C778.556 1058.81 779.996 1057.53 781.956 1057.53C783.836 1057.53 785.436 1058.77 785.436 1061.17C785.436 1063.17 784.356 1064.73 781.836 1064.73H781.076V1069.25H781.836C784.396 1069.25 785.836 1070.81 785.836 1073.17C785.836 1075.73 784.236 1077.13 781.996 1077.13C779.956 1077.13 778.196 1075.97 778.116 1073.41H772.916C772.996 1079.37 777.356 1081.81 781.996 1081.81C786.876 1081.81 791.036 1079.01 791.036 1073.33Z" fill="white"/>
<path fill-rule="evenodd" clip-rule="evenodd" d="M1809.01 214.219C1824.67 214.219 1837.36 226.91 1837.36 242.566C1837.36 258.221 1824.67 270.912 1809.01 270.912C1793.36 270.912 1780.67 258.221 1780.67 242.566C1780.67 226.91 1793.36 214.219 1809.01 214.219Z" fill="black"/>
<path d="M1817.82 256.768V252.088H1806.82L1814.78 242.848C1816.74 240.568 1817.82 239.088 1817.82 236.327C1817.82 231.208 1814.22 228.048 1809.18 228.048C1804.3 228.048 1800.5 231.168 1800.5 236.368H1805.7C1805.7 233.608 1807.46 232.728 1809.18 232.728C1811.38 232.728 1812.62 234.168 1812.62 236.288C1812.62 237.608 1812.18 238.487 1811.14 239.728L1800.5 252.088V256.768H1817.82Z" fill="white"/>
<path fill-rule="evenodd" clip-rule="evenodd" d="M2316.01 214.219C2331.67 214.219 2344.36 226.91 2344.36 242.566C2344.36 258.221 2331.67 270.912 2316.01 270.912C2300.36 270.912 2287.67 258.221 2287.67 242.566C2287.67 226.91 2300.36 214.219 2316.01 214.219Z" fill="black"/>
<path d="M2324.82 256.768V252.088H2313.82L2321.78 242.848C2323.74 240.568 2324.82 239.088 2324.82 236.327C2324.82 231.208 2321.22 228.048 2316.18 228.048C2311.3 228.048 2307.5 231.168 2307.5 236.368H2312.7C2312.7 233.608 2314.46 232.728 2316.18 232.728C2318.38 232.728 2319.62 234.168 2319.62 236.288C2319.62 237.608 2319.18 238.487 2318.14 239.728L2307.5 252.088V256.768H2324.82Z" fill="white"/>
<rect x="985" y="505" width="56" height="56" rx="20" fill="#3879F6"/>
<path d="M1024.51 535.42C1024.51 536.164 1024.35 536.764 1024.04 537.22C1023.73 537.652 1023.12 537.988 1022.2 538.228C1021.32 538.468 1020 538.588 1018.24 538.588V541.144C1018.24 541.864 1018.54 542.368 1019.14 542.656C1019.74 542.944 1020.69 543.088 1021.99 543.088C1021.99 543.472 1021.9 543.916 1021.74 544.42C1021.59 544.9 1021.39 545.26 1021.12 545.5H1009.57C1009.33 545.26 1009.14 544.9 1008.99 544.42C1008.85 543.94 1008.78 543.496 1008.78 543.088C1011.39 543.088 1012.7 542.428 1012.7 541.108V538.588H1002.01L1001.36 536.356L1010.94 520.372H1018.24V535.636H1018.82C1019.76 535.636 1020.48 535.456 1020.98 535.096C1021.48 534.712 1021.9 534.088 1022.24 533.224H1023.07C1023.48 533.344 1023.81 533.62 1024.08 534.052C1024.36 534.46 1024.51 534.916 1024.51 535.42ZM1012.7 535.636V523.612L1006.4 535.636H1012.7Z" fill="white"/>
<path opacity="0.2" d="M586 568H968V891H586V568Z" fill="black"/>
<path opacity="0.2" d="M3 7H959V571H3V7Z" fill="black"/>
<path opacity="0.2" d="M1652 513H2057V1332H1652V513Z" fill="black"/>
<path opacity="0.2" d="M1682 429L1717 395.5L1756.5 368L1794 353.5L1854 345L1905.5 351L1953 368L1991 395L2026 429V513H1682V429Z" fill="black"/>
<rect x="875" y="501" width="56" height="56" rx="20" fill="black" fill-opacity="0.8"/>
<mask id="mask0_154_1016" style="mask-type:alpha" maskUnits="userSpaceOnUse" x="879" y="505" width="48" height="48">
<rect x="879" y="505" width="48" height="48" fill="#D9D9D9"/>
</mask>
<g mask="url(#mask0_154_1016)">
<path d="M903.006 534.5C904.535 534.5 905.833 533.965 906.9 532.894C907.967 531.824 908.5 530.524 908.5 528.994C908.5 527.465 907.965 526.167 906.894 525.1C905.824 524.033 904.524 523.5 902.994 523.5C901.465 523.5 900.167 524.035 899.1 525.106C898.033 526.176 897.5 527.476 897.5 529.006C897.5 530.535 898.035 531.833 899.106 532.9C900.176 533.967 901.476 534.5 903.006 534.5ZM902.95 537.5C900.797 537.5 898.708 537.85 896.685 538.55C894.662 539.25 892.8 540.267 891.1 541.6C890.733 541.856 890.458 542.203 890.275 542.642C890.092 543.081 890 543.533 890 544H915.6C915.6 543.533 915.567 543.083 915.5 542.65C915.433 542.217 915.233 541.867 914.9 541.6C913.167 540.267 911.292 539.25 909.275 538.55C907.258 537.85 905.15 537.5 902.95 537.5ZM890 547C889.175 547 888.469 546.706 887.881 546.119C887.294 545.531 887 544.825 887 544V524.5C887 524.025 887.106 523.575 887.319 523.15C887.531 522.725 887.825 522.375 888.2 522.1L901.2 512.35C901.723 511.95 902.32 511.75 902.992 511.75C903.664 511.75 904.267 511.95 904.8 512.35L917.8 522.1C918.175 522.375 918.469 522.725 918.681 523.15C918.894 523.575 919 524.025 919 524.5V544C919 544.825 918.706 545.531 918.119 546.119C917.531 546.706 916.825 547 916 547H890Z" fill="white"/>
</g>
</svg>
