<svg width="2796" height="953" viewBox="0 0 2796 953" fill="none" xmlns="http://www.w3.org/2000/svg">
<rect opacity="0.2" x="2493" y="372" width="143" height="28" fill="#FFC888"/>
<path opacity="0.2" d="M2297 400H2634V950H2297V400Z" fill="#FFC888"/>
<path opacity="0.2" d="M2115 399H2297V949H2115V399Z" fill="black"/>
<path opacity="0.2" d="M1674 400H1917V535H1674V400Z" fill="black"/>
<path opacity="0.2" d="M1673 5H2117V297H1673V5Z" fill="black"/>
<path opacity="0.2" d="M3 5H277V448H3V5Z" fill="black"/>
<path opacity="0.2" d="M278 6H395V292H278V6Z" fill="#40B93C"/>
<path opacity="0.2" d="M541 430H1333V538H541V430Z" fill="#40B93C"/>
<path opacity="0.2" d="M395 5H574V98H395V5Z" fill="#40B93C"/>
<path opacity="0.2" d="M3 448H255V536H3V448Z" fill="black"/>
<path opacity="0.2" d="M2316 5H2489V318H2316V5Z" fill="black"/>
<path opacity="0.2" d="M2489 5H2793V318H2489V5Z" fill="black"/>
<rect x="2187" y="388" width="56" height="56" rx="20" fill="black" fill-opacity="0.8"/>
<mask id="mask0_154_1014" style="mask-type:alpha" maskUnits="userSpaceOnUse" x="2195" y="396" width="40" height="40">
<rect x="2195" y="396" width="40" height="40" fill="#D9D9D9"/>
</mask>
<g mask="url(#mask0_154_1014)">
<path d="M2204.44 432.667C2203.68 432.667 2203.03 432.395 2202.48 431.851C2201.94 431.307 2201.67 430.653 2201.67 429.889V412.278C2201.67 411.514 2201.94 410.86 2202.48 410.316C2203.03 409.772 2203.68 409.5 2204.44 409.5H2206.94V405.723C2206.94 403.494 2207.73 401.594 2209.3 400.023C2210.87 398.452 2212.77 397.667 2215 397.667C2217.23 397.667 2219.13 398.452 2220.7 400.023C2222.27 401.594 2223.06 403.494 2223.06 405.723V409.5H2225.56C2226.32 409.5 2226.97 409.772 2227.52 410.316C2228.06 410.86 2228.33 411.514 2228.33 412.278V429.889C2228.33 430.653 2228.06 431.307 2227.52 431.851C2226.97 432.395 2226.32 432.667 2225.56 432.667H2204.44ZM2215 424.334C2215.9 424.334 2216.66 424.021 2217.3 423.395C2217.93 422.77 2218.25 422.018 2218.25 421.139C2218.25 420.278 2217.93 419.512 2217.29 418.841C2216.66 418.169 2215.89 417.834 2215 417.834C2214.1 417.834 2213.34 418.169 2212.7 418.841C2212.07 419.512 2211.75 420.283 2211.75 421.153C2211.75 422.023 2212.07 422.771 2212.71 423.396C2213.34 424.021 2214.11 424.334 2215 424.334ZM2209.72 409.5H2220.28V405.723C2220.28 404.256 2219.77 403.01 2218.74 401.984C2217.71 400.958 2216.47 400.445 2215 400.445C2213.54 400.445 2212.29 400.958 2211.26 401.984C2210.24 403.01 2209.72 404.256 2209.72 405.723V409.5Z" fill="white"/>
</g>
<rect x="2528" y="281" width="56" height="56" rx="20" fill="black" fill-opacity="0.8"/>
<mask id="mask1_154_1014" style="mask-type:alpha" maskUnits="userSpaceOnUse" x="2536" y="289" width="40" height="40">
<rect x="2536" y="289" width="40" height="40" fill="#D9D9D9"/>
</mask>
<g mask="url(#mask1_154_1014)">
<path d="M2545.44 325.667C2544.68 325.667 2544.03 325.395 2543.48 324.851C2542.94 324.307 2542.67 323.653 2542.67 322.889V305.278C2542.67 304.514 2542.94 303.86 2543.48 303.316C2544.03 302.772 2544.68 302.5 2545.44 302.5H2547.94V298.723C2547.94 296.494 2548.73 294.594 2550.3 293.023C2551.87 291.452 2553.77 290.667 2556 290.667C2558.23 290.667 2560.13 291.452 2561.7 293.023C2563.27 294.594 2564.06 296.494 2564.06 298.723V302.5H2566.56C2567.32 302.5 2567.97 302.772 2568.52 303.316C2569.06 303.86 2569.33 304.514 2569.33 305.278V322.889C2569.33 323.653 2569.06 324.307 2568.52 324.851C2567.97 325.395 2567.32 325.667 2566.56 325.667H2545.44ZM2556 317.334C2556.9 317.334 2557.66 317.021 2558.3 316.395C2558.93 315.77 2559.25 315.018 2559.25 314.139C2559.25 313.278 2558.93 312.512 2558.29 311.841C2557.66 311.169 2556.89 310.834 2556 310.834C2555.1 310.834 2554.34 311.169 2553.7 311.841C2553.07 312.512 2552.75 313.283 2552.75 314.153C2552.75 315.023 2553.07 315.771 2553.71 316.396C2554.34 317.021 2555.11 317.334 2556 317.334ZM2550.72 302.5H2561.28V298.723C2561.28 297.256 2560.76 296.01 2559.74 294.984C2558.71 293.958 2557.47 293.445 2556 293.445C2554.54 293.445 2553.29 293.958 2552.26 294.984C2551.24 296.01 2550.72 297.256 2550.72 298.723V302.5Z" fill="white"/>
</g>
<path opacity="0.2" d="M1919 400H2115V535H1919V400Z" fill="black"/>
<rect x="2439" y="654" width="56" height="56" rx="20" fill="black" fill-opacity="0.8"/>
<mask id="mask2_154_1014" style="mask-type:alpha" maskUnits="userSpaceOnUse" x="2443" y="658" width="48" height="48">
<rect x="2443" y="658" width="48" height="48" fill="#D9D9D9"/>
</mask>
<g mask="url(#mask2_154_1014)">
<path d="M2458.73 698C2459.17 698 2459.53 697.858 2459.81 697.575C2460.09 697.291 2460.23 696.933 2460.23 696.499V681.31C2461.4 681.149 2462.39 680.619 2463.22 679.719C2464.04 678.818 2464.45 677.781 2464.45 676.607V667.381C2464.45 666.981 2464.31 666.65 2464.02 666.39C2463.73 666.13 2463.39 666 2463 666C2462.6 666 2462.27 666.13 2462.01 666.39C2461.75 666.65 2461.62 666.973 2461.62 667.359V674.585H2460.29V667.359C2460.29 666.973 2460.16 666.65 2459.9 666.39C2459.64 666.13 2459.31 666 2458.91 666C2458.5 666 2458.17 666.13 2457.91 666.39C2457.65 666.65 2457.52 666.973 2457.52 667.359V674.585H2455.77V667.359C2455.77 666.973 2455.64 666.65 2455.38 666.39C2455.12 666.13 2454.79 666 2454.39 666C2453.98 666 2453.65 666.13 2453.39 666.39C2453.13 666.65 2453 666.981 2453 667.381V676.607C2453 677.781 2453.4 678.818 2454.21 679.719C2455.01 680.619 2456.01 681.149 2457.22 681.31V696.499C2457.22 696.933 2457.36 697.291 2457.65 697.575C2457.93 697.858 2458.3 698 2458.73 698ZM2473.98 698C2474.42 698 2474.78 697.858 2475.06 697.575C2475.34 697.291 2475.48 696.933 2475.48 696.499V682.03C2476.89 681.47 2477.99 680.471 2478.79 679.034C2479.6 677.598 2480 675.914 2480 673.985C2480 671.704 2479.44 669.802 2478.33 668.281C2477.22 666.76 2475.82 666 2474.14 666C2472.46 666 2471.08 666.76 2470 668.281C2468.91 669.802 2468.37 671.704 2468.37 673.985C2468.37 676.026 2468.73 677.747 2469.45 679.148C2470.18 680.549 2471.18 681.51 2472.47 682.03V696.499C2472.47 696.933 2472.61 697.291 2472.9 697.575C2473.18 697.858 2473.54 698 2473.98 698Z" fill="white"/>
</g>
<rect x="708" y="469" width="56" height="56" rx="20" fill="black" fill-opacity="0.8"/>
<mask id="mask3_154_1014" style="mask-type:alpha" maskUnits="userSpaceOnUse" x="716" y="477" width="40" height="40">
<rect x="716" y="477" width="40" height="40" fill="#D9D9D9"/>
</mask>
<g mask="url(#mask3_154_1014)">
<path d="M724.889 507.556H747.111L736 498.861L724.889 507.556ZM733.181 488.278C733.079 488.528 732.919 488.736 732.701 488.903C732.484 489.07 732.222 489.153 731.917 489.153C731.519 489.153 731.187 489.021 730.924 488.757C730.66 488.493 730.528 488.162 730.528 487.764C730.528 487.662 730.53 487.567 730.535 487.479C730.539 487.392 730.569 487.301 730.625 487.209C731.097 486.153 731.819 485.299 732.792 484.646C733.764 483.993 734.833 483.667 736 483.667C737.611 483.667 738.986 484.229 740.125 485.354C741.264 486.479 741.833 487.848 741.833 489.459C741.833 490.801 741.419 491.991 740.59 493.028C739.762 494.065 738.694 494.778 737.389 495.167V496.445L752.111 507.834C752.296 507.973 752.435 508.137 752.528 508.327C752.62 508.517 752.667 508.723 752.667 508.945C752.667 509.343 752.535 509.674 752.271 509.938C752.007 510.202 751.676 510.334 751.278 510.334H720.722C720.324 510.334 719.993 510.202 719.729 509.938C719.465 509.674 719.333 509.343 719.333 508.945C719.333 508.723 719.38 508.517 719.472 508.327C719.565 508.137 719.704 507.973 719.889 507.834L734.611 496.445V493.945C734.611 493.565 734.745 493.239 735.014 492.966C735.282 492.692 735.606 492.556 735.986 492.556C736.847 492.556 737.574 492.255 738.167 491.653C738.759 491.051 739.056 490.32 739.056 489.459C739.056 488.616 738.757 487.903 738.16 487.32C737.562 486.736 736.843 486.445 736 486.445C735.389 486.445 734.829 486.609 734.319 486.938C733.81 487.267 733.431 487.713 733.181 488.278Z" fill="white"/>
</g>
<rect x="408" y="242" width="56" height="56" rx="20" fill="black" fill-opacity="0.8"/>
<mask id="mask4_154_1014" style="mask-type:alpha" maskUnits="userSpaceOnUse" x="416" y="250" width="40" height="40">
<rect x="416" y="250" width="40" height="40" fill="#D9D9D9"/>
</mask>
<g mask="url(#mask4_154_1014)">
<path d="M436 273.306L438.667 275.389C438.935 275.602 439.213 275.609 439.5 275.41C439.787 275.211 439.88 274.945 439.778 274.611L438.722 271.278L441.486 269.028C441.736 268.815 441.81 268.554 441.708 268.243C441.606 267.933 441.389 267.778 441.056 267.778H437.778L436.653 264.459C436.532 264.144 436.315 263.986 436 263.986C435.685 263.986 435.468 264.144 435.347 264.459L434.222 267.778H430.931C430.597 267.778 430.382 267.933 430.285 268.243C430.187 268.554 430.264 268.815 430.514 269.028L433.25 271.278L432.194 274.625C432.093 274.959 432.181 275.225 432.458 275.424C432.736 275.623 433.014 275.616 433.292 275.403L436 273.306ZM422.111 283.334C421.343 283.334 420.687 283.063 420.146 282.521C419.604 281.979 419.333 281.324 419.333 280.556V275.014C419.333 274.727 419.417 274.477 419.583 274.264C419.75 274.051 419.968 273.908 420.236 273.834C421.032 273.556 421.664 273.056 422.132 272.334C422.6 271.611 422.833 270.834 422.833 270C422.833 269.186 422.6 268.412 422.132 267.681C421.664 266.949 421.032 266.445 420.236 266.167C419.968 266.093 419.75 265.949 419.583 265.736C419.417 265.523 419.333 265.273 419.333 264.986V259.445C419.333 258.676 419.604 258.021 420.146 257.479C420.687 256.938 421.343 256.667 422.111 256.667H449.889C450.657 256.667 451.312 256.938 451.854 257.479C452.396 258.021 452.667 258.676 452.667 259.445V264.986C452.667 265.273 452.583 265.523 452.417 265.736C452.25 265.949 452.032 266.093 451.764 266.167C450.968 266.445 450.336 266.949 449.868 267.681C449.4 268.412 449.167 269.186 449.167 270C449.167 270.834 449.4 271.611 449.868 272.334C450.336 273.056 450.968 273.556 451.764 273.834C452.032 273.908 452.25 274.051 452.417 274.264C452.583 274.477 452.667 274.727 452.667 275.014V280.556C452.667 281.324 452.396 281.979 451.854 282.521C451.312 283.063 450.657 283.334 449.889 283.334H422.111Z" fill="white"/>
</g>
<rect x="891" y="234" width="56" height="56" rx="20" fill="black" fill-opacity="0.8"/>
<mask id="mask5_154_1014" style="mask-type:alpha" maskUnits="userSpaceOnUse" x="899" y="242" width="40" height="40">
<rect x="899" y="242" width="40" height="40" fill="#D9D9D9"/>
</mask>
<g mask="url(#mask5_154_1014)">
<path d="M923.417 276.681L913.694 273.25L905.889 276.333C905.648 276.426 905.419 276.451 905.201 276.41C904.984 276.368 904.782 276.287 904.597 276.167C904.412 276.046 904.266 275.891 904.16 275.701C904.053 275.512 904 275.292 904 275.042V251.556C904 251.195 904.104 250.875 904.312 250.597C904.521 250.32 904.796 250.111 905.139 249.972L912.778 247.32C912.926 247.264 913.076 247.227 913.229 247.208C913.382 247.19 913.537 247.181 913.694 247.181C913.852 247.181 914.007 247.19 914.16 247.208C914.312 247.227 914.463 247.264 914.611 247.32L924.333 250.722L932.111 247.639C932.352 247.546 932.581 247.516 932.799 247.549C933.016 247.581 933.218 247.658 933.403 247.778C933.588 247.898 933.734 248.058 933.84 248.257C933.947 248.456 934 248.681 934 248.931V272.611C934 272.935 933.896 273.218 933.688 273.458C933.479 273.699 933.213 273.88 932.889 274L925.25 276.681C925.102 276.736 924.951 276.773 924.799 276.792C924.646 276.81 924.491 276.82 924.333 276.82C924.176 276.82 924.021 276.81 923.868 276.792C923.715 276.773 923.565 276.736 923.417 276.681ZM922.833 273.556V253.028L915.167 250.417V270.945L922.833 273.556Z" fill="white"/>
</g>
<rect x="1727" y="262" width="56" height="56" rx="20" fill="black" fill-opacity="0.8"/>
<mask id="mask6_154_1014" style="mask-type:alpha" maskUnits="userSpaceOnUse" x="1735" y="270" width="40" height="40">
<rect x="1735" y="270" width="40" height="40" fill="#D9D9D9"/>
</mask>
<g mask="url(#mask6_154_1014)">
<path d="M1744.44 306.667C1743.68 306.667 1743.03 306.395 1742.48 305.851C1741.94 305.307 1741.67 304.653 1741.67 303.889V286.278C1741.67 285.514 1741.94 284.86 1742.48 284.316C1743.03 283.772 1743.68 283.5 1744.44 283.5H1746.94V279.723C1746.94 277.494 1747.73 275.594 1749.3 274.023C1750.87 272.452 1752.77 271.667 1755 271.667C1757.23 271.667 1759.13 272.452 1760.7 274.023C1762.27 275.594 1763.06 277.494 1763.06 279.723V283.5H1765.56C1766.32 283.5 1766.97 283.772 1767.52 284.316C1768.06 284.86 1768.33 285.514 1768.33 286.278V303.889C1768.33 304.653 1768.06 305.307 1767.52 305.851C1766.97 306.395 1766.32 306.667 1765.56 306.667H1744.44ZM1755 298.334C1755.9 298.334 1756.66 298.021 1757.3 297.395C1757.93 296.77 1758.25 296.018 1758.25 295.139C1758.25 294.278 1757.93 293.512 1757.29 292.841C1756.66 292.169 1755.89 291.834 1755 291.834C1754.1 291.834 1753.34 292.169 1752.7 292.841C1752.07 293.512 1751.75 294.283 1751.75 295.153C1751.75 296.023 1752.07 296.771 1752.71 297.396C1753.34 298.021 1754.11 298.334 1755 298.334ZM1749.72 283.5H1760.28V279.723C1760.28 278.256 1759.76 277.01 1758.74 275.984C1757.71 274.958 1756.47 274.445 1755 274.445C1753.54 274.445 1752.29 274.958 1751.26 275.984C1750.24 277.01 1749.72 278.256 1749.72 279.723V283.5Z" fill="white"/>
</g>
<rect x="2393" y="280" width="56" height="56" rx="20" fill="black" fill-opacity="0.8"/>
<mask id="mask7_154_1014" style="mask-type:alpha" maskUnits="userSpaceOnUse" x="2401" y="288" width="40" height="40">
<rect x="2401" y="288" width="40" height="40" fill="#D9D9D9"/>
</mask>
<g mask="url(#mask7_154_1014)">
<path d="M2410.44 324.667C2409.68 324.667 2409.03 324.395 2408.48 323.851C2407.94 323.307 2407.67 322.653 2407.67 321.889V304.278C2407.67 303.514 2407.94 302.86 2408.48 302.316C2409.03 301.772 2409.68 301.5 2410.44 301.5H2412.94V297.723C2412.94 295.494 2413.73 293.594 2415.3 292.023C2416.87 290.452 2418.77 289.667 2421 289.667C2423.23 289.667 2425.13 290.452 2426.7 292.023C2428.27 293.594 2429.06 295.494 2429.06 297.723V301.5H2431.56C2432.32 301.5 2432.97 301.772 2433.52 302.316C2434.06 302.86 2434.33 303.514 2434.33 304.278V321.889C2434.33 322.653 2434.06 323.307 2433.52 323.851C2432.97 324.395 2432.32 324.667 2431.56 324.667H2410.44ZM2421 316.334C2421.9 316.334 2422.66 316.021 2423.3 315.395C2423.93 314.77 2424.25 314.018 2424.25 313.139C2424.25 312.278 2423.93 311.512 2423.29 310.841C2422.66 310.169 2421.89 309.834 2421 309.834C2420.1 309.834 2419.34 310.169 2418.7 310.841C2418.07 311.512 2417.75 312.283 2417.75 313.153C2417.75 314.023 2418.07 314.771 2418.71 315.396C2419.34 316.021 2420.11 316.334 2421 316.334ZM2415.72 301.5H2426.28V297.723C2426.28 296.256 2425.77 295.01 2424.74 293.984C2423.71 292.958 2422.47 292.445 2421 292.445C2419.54 292.445 2418.29 292.958 2417.26 293.984C2416.24 295.01 2415.72 296.256 2415.72 297.723V301.5Z" fill="white"/>
</g>
<rect x="1923" y="388" width="56" height="56" rx="20" fill="black" fill-opacity="0.8"/>
<mask id="mask8_154_1014" style="mask-type:alpha" maskUnits="userSpaceOnUse" x="1931" y="396" width="40" height="40">
<rect x="1931" y="396" width="40" height="40" fill="#D9D9D9"/>
</mask>
<g mask="url(#mask8_154_1014)">
<path d="M1940.44 432.667C1939.68 432.667 1939.03 432.395 1938.48 431.851C1937.94 431.307 1937.67 430.653 1937.67 429.889V412.278C1937.67 411.514 1937.94 410.86 1938.48 410.316C1939.03 409.772 1939.68 409.5 1940.44 409.5H1942.94V405.723C1942.94 403.494 1943.73 401.594 1945.3 400.023C1946.87 398.452 1948.77 397.667 1951 397.667C1953.23 397.667 1955.13 398.452 1956.7 400.023C1958.27 401.594 1959.06 403.494 1959.06 405.723V409.5H1961.56C1962.32 409.5 1962.97 409.772 1963.52 410.316C1964.06 410.86 1964.33 411.514 1964.33 412.278V429.889C1964.33 430.653 1964.06 431.307 1963.52 431.851C1962.97 432.395 1962.32 432.667 1961.56 432.667H1940.44ZM1951 424.334C1951.9 424.334 1952.66 424.021 1953.3 423.395C1953.93 422.77 1954.25 422.018 1954.25 421.139C1954.25 420.278 1953.93 419.512 1953.29 418.841C1952.66 418.169 1951.89 417.834 1951 417.834C1950.1 417.834 1949.34 418.169 1948.7 418.841C1948.07 419.512 1947.75 420.283 1947.75 421.153C1947.75 422.023 1948.07 422.771 1948.71 423.396C1949.34 424.021 1950.11 424.334 1951 424.334ZM1945.72 409.5H1956.28V405.723C1956.28 404.256 1955.77 403.01 1954.74 401.984C1953.71 400.958 1952.47 400.445 1951 400.445C1949.54 400.445 1948.29 400.958 1947.26 401.984C1946.24 403.01 1945.72 404.256 1945.72 405.723V409.5Z" fill="white"/>
</g>
<rect x="1847" y="388" width="56" height="56" rx="20" fill="black" fill-opacity="0.8"/>
<mask id="mask9_154_1014" style="mask-type:alpha" maskUnits="userSpaceOnUse" x="1855" y="396" width="40" height="40">
<rect x="1855" y="396" width="40" height="40" fill="#D9D9D9"/>
</mask>
<g mask="url(#mask9_154_1014)">
<path d="M1864.44 432.667C1863.68 432.667 1863.03 432.395 1862.48 431.851C1861.94 431.307 1861.67 430.653 1861.67 429.889V412.278C1861.67 411.514 1861.94 410.86 1862.48 410.316C1863.03 409.772 1863.68 409.5 1864.44 409.5H1866.94V405.723C1866.94 403.494 1867.73 401.594 1869.3 400.023C1870.87 398.452 1872.77 397.667 1875 397.667C1877.23 397.667 1879.13 398.452 1880.7 400.023C1882.27 401.594 1883.06 403.494 1883.06 405.723V409.5H1885.56C1886.32 409.5 1886.97 409.772 1887.52 410.316C1888.06 410.86 1888.33 411.514 1888.33 412.278V429.889C1888.33 430.653 1888.06 431.307 1887.52 431.851C1886.97 432.395 1886.32 432.667 1885.56 432.667H1864.44ZM1875 424.334C1875.9 424.334 1876.66 424.021 1877.3 423.395C1877.93 422.77 1878.25 422.018 1878.25 421.139C1878.25 420.278 1877.93 419.512 1877.29 418.841C1876.66 418.169 1875.89 417.834 1875 417.834C1874.1 417.834 1873.34 418.169 1872.7 418.841C1872.07 419.512 1871.75 420.283 1871.75 421.153C1871.75 422.023 1872.07 422.771 1872.71 423.396C1873.34 424.021 1874.11 424.334 1875 424.334ZM1869.72 409.5H1880.28V405.723C1880.28 404.256 1879.76 403.01 1878.74 401.984C1877.71 400.958 1876.47 400.445 1875 400.445C1873.54 400.445 1872.29 400.958 1871.26 401.984C1870.24 403.01 1869.72 404.256 1869.72 405.723V409.5Z" fill="white"/>
</g>
<rect x="181" y="470" width="56" height="56" rx="20" fill="black" fill-opacity="0.8"/>
<mask id="mask10_154_1014" style="mask-type:alpha" maskUnits="userSpaceOnUse" x="189" y="478" width="40" height="40">
<rect x="189" y="478" width="40" height="40" fill="#D9D9D9"/>
</mask>
<g mask="url(#mask10_154_1014)">
<path d="M209.005 499.389C210.594 499.389 211.949 498.827 213.069 497.704C214.19 496.58 214.75 495.224 214.75 493.634C214.75 492.045 214.188 490.69 213.065 489.569C211.941 488.449 210.585 487.889 208.995 487.889C207.406 487.889 206.051 488.451 204.931 489.574C203.81 490.698 203.25 492.054 203.25 493.644C203.25 495.233 203.812 496.588 204.935 497.708C206.059 498.829 207.415 499.389 209.005 499.389ZM209 511.75C210.657 511.204 212.141 510.377 213.451 509.271C214.762 508.164 215.898 506.903 216.861 505.486C215.636 504.893 214.361 504.442 213.035 504.132C211.71 503.822 210.364 503.667 208.996 503.667C207.628 503.667 206.283 503.822 204.959 504.132C203.636 504.442 202.363 504.893 201.139 505.486C202.102 506.903 203.238 508.164 204.549 509.271C205.859 510.377 207.343 511.204 209 511.75ZM209 514.5C208.837 514.5 208.685 514.486 208.545 514.458C208.405 514.431 208.265 514.389 208.125 514.333C204.301 513.046 201.268 510.715 199.028 507.34C196.787 503.965 195.667 500.286 195.667 496.303V488.236C195.667 487.648 195.834 487.119 196.17 486.648C196.506 486.178 196.94 485.837 197.472 485.625L208.028 481.681C208.361 481.56 208.685 481.5 209 481.5C209.315 481.5 209.639 481.56 209.972 481.681L220.528 485.625C221.06 485.837 221.494 486.178 221.83 486.648C222.165 487.119 222.333 487.648 222.333 488.236V496.303C222.333 500.286 221.213 503.965 218.972 507.34C216.731 510.715 213.699 513.046 209.875 514.333C209.735 514.389 209.595 514.431 209.455 514.458C209.315 514.486 209.163 514.5 209 514.5Z" fill="white"/>
</g>
<rect x="309" y="517" width="56" height="56" rx="20" fill="black" fill-opacity="0.8"/>
<mask id="mask11_154_1014" style="mask-type:alpha" maskUnits="userSpaceOnUse" x="317" y="525" width="40" height="40">
<rect x="317" y="525" width="40" height="40" fill="#D9D9D9"/>
</mask>
<g mask="url(#mask11_154_1014)">
<path d="M323.389 560C322.995 560 322.666 559.866 322.399 559.599C322.133 559.332 322 559.001 322 558.606C322 558.211 322.133 557.882 322.399 557.618C322.666 557.354 322.995 557.222 323.389 557.222H325.667V531.389C325.667 530.995 325.8 530.666 326.066 530.399C326.332 530.133 326.662 530 327.056 530H339.278C339.671 530 340.001 530.133 340.267 530.399C340.534 530.666 340.667 530.995 340.667 531.389V531.806H346.972C347.366 531.806 347.696 531.939 347.962 532.205C348.228 532.471 348.361 532.801 348.361 533.194V557.222H350.611C351.005 557.222 351.334 557.356 351.601 557.623C351.867 557.89 352 558.221 352 558.616C352 559.011 351.867 559.34 351.601 559.604C351.334 559.868 351.005 560 350.611 560H346.972C346.579 560 346.249 559.867 345.983 559.601C345.716 559.334 345.583 559.005 345.583 558.611V534.583H340.667V558.611C340.667 559.005 340.534 559.334 340.267 559.601C340.001 559.867 339.671 560 339.278 560H323.389ZM337.306 545C337.306 544.528 337.146 544.132 336.826 543.812C336.507 543.493 336.111 543.333 335.639 543.333C335.167 543.333 334.771 543.493 334.451 543.812C334.132 544.132 333.972 544.528 333.972 545C333.972 545.472 334.132 545.868 334.451 546.188C334.771 546.507 335.167 546.667 335.639 546.667C336.111 546.667 336.507 546.507 336.826 546.188C337.146 545.868 337.306 545.472 337.306 545Z" fill="white"/>
</g>
<rect x="526" y="110" width="56" height="56" rx="20" fill="black" fill-opacity="0.8"/>
<mask id="mask12_154_1014" style="mask-type:alpha" maskUnits="userSpaceOnUse" x="534" y="118" width="40" height="40">
<rect x="534" y="118" width="40" height="40" fill="#D9D9D9"/>
</mask>
<g mask="url(#mask12_154_1014)">
<path d="M541.778 154.667C541.028 154.667 540.377 154.392 539.826 153.841C539.275 153.29 539 152.639 539 151.889V130.5C539 129.75 539.275 129.1 539.826 128.549C540.377 127.998 541.028 127.723 541.778 127.723H545.944C545.944 125.491 546.706 123.591 548.229 122.021C549.752 120.452 551.63 119.667 553.861 119.667C556.093 119.667 558.016 120.452 559.632 122.021C561.248 123.591 562.056 125.491 562.056 127.723H566.222C566.972 127.723 567.623 127.998 568.174 128.549C568.725 129.1 569 129.75 569 130.5V151.889C569 152.639 568.725 153.29 568.174 153.841C567.623 154.392 566.972 154.667 566.222 154.667H541.778ZM548.722 127.723H559.278C559.278 126.241 558.769 124.991 557.75 123.973C556.731 122.954 555.481 122.445 554 122.445C552.519 122.445 551.269 122.954 550.25 123.973C549.231 124.991 548.722 126.241 548.722 127.723ZM553.986 140.5C556.023 140.5 557.875 139.797 559.542 138.389C561.208 136.982 562.037 135.403 562.028 133.653C562.028 133.292 561.894 132.977 561.625 132.709C561.356 132.44 561.023 132.306 560.625 132.306C560.292 132.306 559.995 132.417 559.736 132.639C559.477 132.861 559.306 133.167 559.222 133.556C558.935 134.778 558.296 135.778 557.306 136.556C556.315 137.334 555.208 137.723 553.986 137.723C552.764 137.723 551.655 137.334 550.66 136.556C549.664 135.778 549.028 134.778 548.75 133.556C548.667 133.158 548.495 132.85 548.236 132.632C547.977 132.415 547.681 132.306 547.347 132.306C546.968 132.306 546.641 132.44 546.368 132.709C546.095 132.977 545.958 133.292 545.958 133.653C545.958 135.403 546.782 136.982 548.431 138.389C550.079 139.797 551.931 140.5 553.986 140.5Z" fill="white"/>
</g>
<rect x="1096" y="469" width="56" height="56" rx="20" fill="black" fill-opacity="0.8"/>
<mask id="mask13_154_1014" style="mask-type:alpha" maskUnits="userSpaceOnUse" x="1104" y="477" width="40" height="40">
<rect x="1104" y="477" width="40" height="40" fill="#D9D9D9"/>
</mask>
<g mask="url(#mask13_154_1014)">
<path d="M1112.89 507.556H1135.11L1124 498.861L1112.89 507.556ZM1121.18 488.278C1121.08 488.528 1120.92 488.736 1120.7 488.903C1120.48 489.07 1120.22 489.153 1119.92 489.153C1119.52 489.153 1119.19 489.021 1118.92 488.757C1118.66 488.493 1118.53 488.162 1118.53 487.764C1118.53 487.662 1118.53 487.567 1118.53 487.479C1118.54 487.392 1118.57 487.301 1118.63 487.209C1119.1 486.153 1119.82 485.299 1120.79 484.646C1121.76 483.993 1122.83 483.667 1124 483.667C1125.61 483.667 1126.99 484.229 1128.13 485.354C1129.26 486.479 1129.83 487.848 1129.83 489.459C1129.83 490.801 1129.42 491.991 1128.59 493.028C1127.76 494.065 1126.69 494.778 1125.39 495.167V496.445L1140.11 507.834C1140.3 507.973 1140.44 508.137 1140.53 508.327C1140.62 508.517 1140.67 508.723 1140.67 508.945C1140.67 509.343 1140.53 509.674 1140.27 509.938C1140.01 510.202 1139.68 510.334 1139.28 510.334H1108.72C1108.32 510.334 1107.99 510.202 1107.73 509.938C1107.47 509.674 1107.33 509.343 1107.33 508.945C1107.33 508.723 1107.38 508.517 1107.47 508.327C1107.56 508.137 1107.7 507.973 1107.89 507.834L1122.61 496.445V493.945C1122.61 493.565 1122.75 493.239 1123.01 492.966C1123.28 492.692 1123.61 492.556 1123.99 492.556C1124.85 492.556 1125.57 492.255 1126.17 491.653C1126.76 491.051 1127.06 490.32 1127.06 489.459C1127.06 488.616 1126.76 487.903 1126.16 487.32C1125.56 486.736 1124.84 486.445 1124 486.445C1123.39 486.445 1122.83 486.609 1122.32 486.938C1121.81 487.267 1121.43 487.713 1121.18 488.278Z" fill="white"/>
</g>
<path d="M2117.22 535.759H386.069M291.985 535.759H2.86133V5.23499H2117.57L2117.51 296.832" stroke="black" stroke-width="5.66933" stroke-linecap="round" stroke-linejoin="round"/>
<path d="M2117.44 4.82193H2793V317.507" stroke="black" stroke-width="5.66933" stroke-linecap="round" stroke-linejoin="round"/>
<path d="M831.282 7.34668L837.03 37.4596L836.511 37.4652C805.862 37.7946 775.048 40.8402 744.042 46.4932C713.161 52.1237 682.083 60.3452 650.783 71.0462L681.634 211.131C758.952 183.837 834.898 170.773 909.509 171.517C911.625 171.538 913.74 171.572 915.854 171.615V172.481C913.738 172.438 911.621 172.404 909.502 172.383C834.846 171.639 758.844 184.74 681.458 212.111L680.995 212.274C670.623 165.002 660.197 117.737 649.768 70.4772L650.137 70.3512C681.592 59.5774 712.834 51.3036 743.889 45.6416C774.767 40.0113 805.457 36.9642 835.985 36.6068L830.236 6.48828L915.854 5.91309V6.77864L831.282 7.34668Z" fill="black"/>
<path d="M831.282 7.34667L837.03 37.4596L836.511 37.4652C805.862 37.7946 775.048 40.8402 744.042 46.4932C713.161 52.1237 682.083 60.3452 650.783 71.0462L681.634 211.131C758.952 183.837 834.898 170.773 909.509 171.517C911.625 171.538 913.74 171.572 915.854 171.615V172.481C913.738 172.438 911.621 172.404 909.502 172.383C834.846 171.639 758.844 184.74 681.458 212.111L680.995 212.274C670.623 165.002 660.197 117.737 649.768 70.4772L650.137 70.3512C681.592 59.5774 712.834 51.3036 743.889 45.6416C774.767 40.0113 805.457 36.9642 835.985 36.6068L830.236 6.48828L915.854 5.91308V6.77864L831.282 7.34667Z" stroke="black" stroke-width="5.66933" stroke-linecap="round" stroke-linejoin="round"/>
<path d="M702.008 204.396L669.641 64.47" stroke="black" stroke-width="5.66933" stroke-linecap="round" stroke-linejoin="round"/>
<path d="M719.253 199.796L686.273 59.5654" stroke="black" stroke-width="5.66933" stroke-linecap="round" stroke-linejoin="round"/>
<path d="M735.991 194.552L702.762 55.237" stroke="black" stroke-width="5.66933" stroke-linecap="round" stroke-linejoin="round"/>
<path d="M755.463 189.45L720.832 50.3506" stroke="black" stroke-width="5.66933" stroke-linecap="round" stroke-linejoin="round"/>
<path d="M772.275 185.823L737.5 47.3343" stroke="black" stroke-width="5.66933" stroke-linecap="round" stroke-linejoin="round"/>
<path d="M789.879 182.337L756.182 44.3877" stroke="black" stroke-width="5.66933" stroke-linecap="round" stroke-linejoin="round"/>
<path d="M808.703 179.175L774.934 41.1536" stroke="black" stroke-width="5.66933" stroke-linecap="round" stroke-linejoin="round"/>
<path d="M826.592 176.661L794.117 39.3581" stroke="black" stroke-width="5.66933" stroke-linecap="round" stroke-linejoin="round"/>
<path d="M844.843 174.29L813.086 38.1361" stroke="black" stroke-width="5.66933" stroke-linecap="round" stroke-linejoin="round"/>
<path d="M861.512 173.429L832.916 37.3463" stroke="black" stroke-width="5.66933" stroke-linecap="round" stroke-linejoin="round"/>
<path d="M1891.7 399.273H1935.22M1966.46 399.023L2115.2 399.273V535.925H1673.76V399.273L1858.43 399.773" stroke="black" stroke-width="5.66933" stroke-linecap="round" stroke-linejoin="round"/>
<path d="M1739.42 297.062H1673.32V5.06803" stroke="black" stroke-width="5.66933" stroke-linecap="round" stroke-linejoin="round"/>
<path d="M1768.73 297.259L2117.08 297.133" stroke="black" stroke-width="5.66933" stroke-linecap="round" stroke-linejoin="round"/>
<path d="M2114.03 399.517H2194.5" stroke="black" stroke-width="5.66933" stroke-linecap="round" stroke-linejoin="round"/>
<path d="M2237.79 399.591L2384.04 400.091" stroke="black" stroke-width="5.66933" stroke-linecap="round" stroke-linejoin="round"/>
<path d="M2431.24 399.535H2493.5L2493.25 372.137H2636.66V949.608H2115.32L2115.28 540.814" stroke="black" stroke-width="5.66933" stroke-linecap="round" stroke-linejoin="round"/>
<path d="M2117.58 229.097H2166.66" stroke="black" stroke-width="5.66933" stroke-linecap="round" stroke-linejoin="round"/>
<path d="M2207.47 229.671H2215.52V4.35318" stroke="black" stroke-width="5.66933" stroke-linecap="round" stroke-linejoin="round"/>
<path d="M2215.46 229.728H2224.37" stroke="black" stroke-width="5.66933" stroke-linecap="round" stroke-linejoin="round"/>
<path d="M2270.99 228.808H2316.39V3.77734" stroke="black" stroke-width="5.66933" stroke-linecap="round" stroke-linejoin="round"/>
<path d="M2316.41 228.732V317.825H2391.71" stroke="black" stroke-width="5.66933" stroke-linecap="round" stroke-linejoin="round"/>
<path d="M2448.61 317.249H2525.64" stroke="black" stroke-width="5.66933" stroke-linecap="round" stroke-linejoin="round"/>
<path d="M2584.26 317.249H2792.34" stroke="black" stroke-width="5.66933" stroke-linecap="round" stroke-linejoin="round"/>
<path d="M2695.77 317.249L2636.57 390.247H2792.29" stroke="black" stroke-width="5.66933" stroke-linecap="round" stroke-linejoin="round"/>
<path d="M2637.13 412.089H2791.79" stroke="black" stroke-width="5.66933" stroke-linecap="round" stroke-linejoin="round"/>
<path d="M2637.13 432.2H2791.23" stroke="black" stroke-width="5.66933" stroke-linecap="round" stroke-linejoin="round"/>
<path d="M2637.13 452.312H2791.23" stroke="black" stroke-width="5.66933" stroke-linecap="round" stroke-linejoin="round"/>
<path d="M2637.13 472.423H2791.79" stroke="black" stroke-width="5.66933" stroke-linecap="round" stroke-linejoin="round"/>
<path d="M2792.34 317.825V823.386L2763.05 823.261" stroke="black" stroke-width="5.66933" stroke-linecap="round" stroke-linejoin="round"/>
<path d="M2717.66 823.386H2637.14" stroke="black" stroke-width="5.66933" stroke-linecap="round" stroke-linejoin="round"/>
<path d="M1916.93 399.445V535.782" stroke="black" stroke-width="5.66933" stroke-linecap="round" stroke-linejoin="round"/>
<path d="M2488.85 316.675V5.13866" stroke="black" stroke-width="5.66933" stroke-linecap="round" stroke-linejoin="round"/>
<path d="M2635.99 390.821V317.824" stroke="black" stroke-width="5.66933" stroke-linecap="round" stroke-linejoin="round"/>
<path d="M2619.9 371.753V317.25" stroke="black" stroke-width="5.66933" stroke-linecap="round" stroke-linejoin="round"/>
<path d="M277.631 5.7132V448.301H254.639V483.938" stroke="black" stroke-width="5.66933" stroke-linecap="round" stroke-linejoin="round"/>
<path d="M254.484 526.472V535.54" stroke="black" stroke-width="5.66933" stroke-linecap="round" stroke-linejoin="round"/>
<path d="M1000.43 7.34668L994.68 37.4596L995.199 37.4652C1025.85 37.7946 1056.66 40.8402 1087.67 46.4932C1118.55 52.1237 1149.63 60.3452 1180.93 71.0462L1150.08 211.131C1072.76 183.837 996.811 170.773 922.2 171.517C920.084 171.538 917.969 171.572 915.855 171.615V172.481C917.972 172.438 920.089 172.404 922.207 172.383C996.864 171.639 1072.87 184.74 1150.25 212.111L1150.71 212.274C1161.09 165.002 1171.51 117.737 1181.94 70.4772L1181.57 70.3512C1150.12 59.5774 1118.88 51.3036 1087.82 45.6416C1056.94 40.0113 1026.25 36.9642 995.724 36.6068L1001.47 6.48828L915.855 5.91309V6.77864L1000.43 7.34668Z" fill="black"/>
<path d="M1000.43 7.34667L994.68 37.4596L995.199 37.4652C1025.85 37.7946 1056.66 40.8402 1087.67 46.4932C1118.55 52.1237 1149.63 60.3452 1180.93 71.0462L1150.08 211.131C1072.76 183.837 996.811 170.773 922.2 171.517C920.084 171.538 917.969 171.572 915.855 171.615V172.481C917.972 172.438 920.089 172.404 922.207 172.383C996.864 171.639 1072.87 184.74 1150.25 212.111L1150.71 212.274C1161.09 165.002 1171.51 117.737 1181.94 70.4772L1181.57 70.3512C1150.12 59.5774 1118.88 51.3036 1087.82 45.6416C1056.94 40.0113 1026.25 36.9642 995.724 36.6068L1001.47 6.48828L915.855 5.91308V6.77864L1000.43 7.34667Z" stroke="black" stroke-width="5.66933" stroke-linecap="round" stroke-linejoin="round"/>
<path d="M1129.7 204.396L1162.07 64.47" stroke="black" stroke-width="5.66933" stroke-linecap="round" stroke-linejoin="round"/>
<path d="M1112.46 199.796L1145.44 59.5654" stroke="black" stroke-width="5.66933" stroke-linecap="round" stroke-linejoin="round"/>
<path d="M1095.72 194.552L1128.95 55.237" stroke="black" stroke-width="5.66933" stroke-linecap="round" stroke-linejoin="round"/>
<path d="M1076.25 189.45L1110.88 50.3506" stroke="black" stroke-width="5.66933" stroke-linecap="round" stroke-linejoin="round"/>
<path d="M1059.43 185.823L1094.21 47.3343" stroke="black" stroke-width="5.66933" stroke-linecap="round" stroke-linejoin="round"/>
<path d="M1041.83 182.337L1075.53 44.3877" stroke="black" stroke-width="5.66933" stroke-linecap="round" stroke-linejoin="round"/>
<path d="M1023.01 179.175L1056.78 41.1536" stroke="black" stroke-width="5.66933" stroke-linecap="round" stroke-linejoin="round"/>
<path d="M1005.12 176.661L1037.59 39.3581" stroke="black" stroke-width="5.66933" stroke-linecap="round" stroke-linejoin="round"/>
<path d="M986.867 174.29L1018.62 38.1361" stroke="black" stroke-width="5.66933" stroke-linecap="round" stroke-linejoin="round"/>
<path d="M970.197 173.429L998.793 37.3463" stroke="black" stroke-width="5.66933" stroke-linecap="round" stroke-linejoin="round"/>
<path d="M541.092 430.221H584.776V473.905H541.092V430.221Z" stroke="black" stroke-width="5.66933" stroke-linecap="round" stroke-linejoin="round"/>
<path d="M915.855 430.221H959.539V473.905H915.855V430.221Z" stroke="black" stroke-width="5.66933" stroke-linecap="round" stroke-linejoin="round"/>
<path d="M1289.47 430.221H1333.15V473.905H1289.47V430.221Z" stroke="black" stroke-width="5.66933" stroke-linecap="round" stroke-linejoin="round"/>
<path d="M1245.79 5.4515V39.6514L1259.88 39.623L1260.03 18.0967H1359.02V39.8672H1372.24V5.4515H1245.79Z" stroke="black" stroke-width="5.66933" stroke-linecap="round" stroke-linejoin="round"/>
<path d="M1372.3 5.16146H1643.03V39.9365H1372.3V5.16146Z" stroke="black" stroke-width="5.66933" stroke-linecap="round" stroke-linejoin="round"/>
<path d="M1643.11 39.9375H1673V95.9795H1643.11V39.9375Z" stroke="black" stroke-width="5.66933" stroke-linecap="round" stroke-linejoin="round"/>
<path d="M1673.14 280.487H1643.39V271.29H1673.14V280.487Z" stroke="black" stroke-width="5.66933" stroke-linecap="round" stroke-linejoin="round"/>
<path d="M1393.12 39.8643H1615.42V49.6357H1393.12V39.8643Z" stroke="black" stroke-width="5.66933" stroke-linecap="round" stroke-linejoin="round"/>
<path d="M1390.52 40.2959H1385.67C1384.24 40.2959 1383.06 41.4681 1383.06 42.9023V73.7572C1383.06 75.1914 1384.24 76.3643 1385.67 76.3643H1390.52C1391.95 76.3643 1393.12 75.1914 1393.12 73.7572V42.9023C1393.12 41.4681 1391.95 40.2959 1390.52 40.2959Z" stroke="black" stroke-width="5.66933" stroke-linecap="round" stroke-linejoin="round"/>
<path d="M1623.02 40.2959H1618.18C1616.74 40.2959 1615.57 41.4681 1615.57 42.9023V73.7572C1615.57 75.1914 1616.74 76.3643 1618.18 76.3643H1623.02C1624.46 76.3643 1625.63 75.1914 1625.63 73.7572V42.9023C1625.63 41.4681 1624.46 40.2959 1623.02 40.2959Z" stroke="black" stroke-width="5.66933" stroke-linecap="round" stroke-linejoin="round"/>
<path d="M1395.03 166.742H1443.53C1447.34 166.742 1450.46 169.858 1450.46 173.668V209.249C1450.46 213.059 1447.34 216.175 1443.53 216.175H1395.03C1391.22 216.175 1388.1 213.059 1388.1 209.249V173.668C1388.1 169.858 1391.22 166.742 1395.03 166.742Z" stroke="black" stroke-width="5.66933" stroke-linecap="round" stroke-linejoin="round"/>
<path d="M1579.15 49.6299H1614.78C1615.26 49.6299 1615.65 50.0204 1615.65 50.4987V72.4538C1615.65 74.1266 1614.28 75.4951 1612.6 75.4951H1581.76C1580.08 75.4951 1578.71 74.1266 1578.71 72.4538V50.0638C1578.71 49.8251 1578.91 49.6299 1579.15 49.6299Z" stroke="black" stroke-width="5.66933" stroke-linecap="round" stroke-linejoin="round"/>
<path d="M1542.07 49.6299H1577.7C1578.18 49.6299 1578.57 50.0204 1578.57 50.4987V72.4538C1578.57 74.1266 1577.2 75.4951 1575.53 75.4951H1544.68C1543.01 75.4951 1541.64 74.1266 1541.64 72.4538V50.0638C1541.64 49.8251 1541.84 49.6299 1542.07 49.6299Z" stroke="black" stroke-width="5.66933" stroke-linecap="round" stroke-linejoin="round"/>
<path d="M1505 49.6299H1540.63C1541.11 49.6299 1541.5 50.0204 1541.5 50.4987V72.4538C1541.5 74.1266 1540.13 75.4951 1538.46 75.4951H1507.61C1505.93 75.4951 1504.57 74.1266 1504.57 72.4538V50.0638C1504.57 49.8251 1504.76 49.6299 1505 49.6299Z" stroke="black" stroke-width="5.66933" stroke-linecap="round" stroke-linejoin="round"/>
<path d="M1467.93 49.6299H1503.56C1504.03 49.6299 1504.43 50.0204 1504.43 50.4987V72.4538C1504.43 74.1266 1503.06 75.4951 1501.38 75.4951H1470.54C1468.86 75.4951 1467.49 74.1266 1467.49 72.4538V50.0638C1467.49 49.8251 1467.69 49.6299 1467.93 49.6299Z" stroke="black" stroke-width="5.66933" stroke-linecap="round" stroke-linejoin="round"/>
<path d="M1430.85 49.6299H1466.48C1466.96 49.6299 1467.35 50.0204 1467.35 50.4987V72.4538C1467.35 74.1266 1465.98 75.4951 1464.31 75.4951H1433.46C1431.79 75.4951 1430.42 74.1266 1430.42 72.4538V50.0638C1430.42 49.8251 1430.61 49.6299 1430.85 49.6299Z" stroke="black" stroke-width="5.66933" stroke-linecap="round" stroke-linejoin="round"/>
<path d="M1393.78 49.6299H1429.41C1429.89 49.6299 1430.28 50.0204 1430.28 50.4987V72.4538C1430.28 74.1266 1428.91 75.4951 1427.24 75.4951H1396.39C1394.71 75.4951 1393.35 74.1266 1393.35 72.4538V50.0638C1393.35 49.8251 1393.54 49.6299 1393.78 49.6299Z" stroke="black" stroke-width="5.66933" stroke-linecap="round" stroke-linejoin="round"/>
<path d="M1351.31 534.974H1631.54V500.199H1351.31V534.974Z" stroke="black" stroke-width="5.66933" stroke-linecap="round" stroke-linejoin="round"/>
<path d="M1381.62 500.272H1603.93V490.501H1381.62V500.272Z" stroke="black" stroke-width="5.66933" stroke-linecap="round" stroke-linejoin="round"/>
<path d="M1379.02 499.841H1374.18C1372.74 499.841 1371.57 498.668 1371.57 497.234V466.379C1371.57 464.945 1372.74 463.772 1374.18 463.772H1379.02C1380.45 463.772 1381.63 464.945 1381.63 466.379V497.234C1381.63 498.668 1380.45 499.841 1379.02 499.841Z" stroke="black" stroke-width="5.66933" stroke-linecap="round" stroke-linejoin="round"/>
<path d="M1611.53 499.841H1606.68C1605.25 499.841 1604.08 498.668 1604.08 497.234V466.379C1604.08 464.945 1605.25 463.772 1606.68 463.772H1611.53C1612.96 463.772 1614.13 464.945 1614.13 466.379V497.234C1614.13 498.668 1612.96 499.841 1611.53 499.841Z" stroke="black" stroke-width="5.66933" stroke-linecap="round" stroke-linejoin="round"/>
<path d="M1567.65 490.507H1603.28C1603.76 490.507 1604.15 490.116 1604.15 489.638V467.683C1604.15 466.01 1602.78 464.641 1601.11 464.641H1570.26C1568.59 464.641 1567.22 466.01 1567.22 467.683V490.072C1567.22 490.311 1567.41 490.507 1567.65 490.507Z" stroke="black" stroke-width="5.66933" stroke-linecap="round" stroke-linejoin="round"/>
<path d="M1530.58 490.507H1566.21C1566.69 490.507 1567.08 490.116 1567.08 489.638V467.683C1567.08 466.01 1565.71 464.641 1564.03 464.641H1533.19C1531.51 464.641 1530.14 466.01 1530.14 467.683V490.072C1530.14 490.311 1530.34 490.507 1530.58 490.507Z" stroke="black" stroke-width="5.66933" stroke-linecap="round" stroke-linejoin="round"/>
<path d="M1493.51 490.507H1529.13C1529.61 490.507 1530 490.116 1530 489.638V467.683C1530 466.01 1528.63 464.641 1526.96 464.641H1496.11C1494.44 464.641 1493.07 466.01 1493.07 467.683V490.072C1493.07 490.311 1493.27 490.507 1493.51 490.507Z" stroke="black" stroke-width="5.66933" stroke-linecap="round" stroke-linejoin="round"/>
<path d="M1456.43 490.507H1492.06C1492.54 490.507 1492.93 490.116 1492.93 489.638V467.683C1492.93 466.01 1491.56 464.641 1489.89 464.641H1459.04C1457.37 464.641 1456 466.01 1456 467.683V490.072C1456 490.311 1456.19 490.507 1456.43 490.507Z" stroke="black" stroke-width="5.66933" stroke-linecap="round" stroke-linejoin="round"/>
<path d="M1419.36 490.507H1454.99C1455.46 490.507 1455.85 490.116 1455.85 489.638V467.683C1455.85 466.01 1454.49 464.641 1452.81 464.641H1421.97C1420.29 464.641 1418.92 466.01 1418.92 467.683V490.072C1418.92 490.311 1419.12 490.507 1419.36 490.507Z" stroke="black" stroke-width="5.66933" stroke-linecap="round" stroke-linejoin="round"/>
<path d="M1382.28 490.507H1417.91C1418.39 490.507 1418.78 490.116 1418.78 489.638V467.683C1418.78 466.01 1417.41 464.641 1415.74 464.641H1384.89C1383.22 464.641 1381.85 466.01 1381.85 467.683V490.072C1381.85 490.311 1382.05 490.507 1382.28 490.507Z" stroke="black" stroke-width="5.66933" stroke-linecap="round" stroke-linejoin="round"/>
<path d="M1457.69 166.742H1506.2C1510.01 166.742 1513.12 169.858 1513.12 173.668V209.249C1513.12 213.059 1510.01 216.175 1506.2 216.175H1457.69C1453.88 216.175 1450.77 213.059 1450.77 209.249V173.668C1450.77 169.858 1453.88 166.742 1457.69 166.742Z" stroke="black" stroke-width="5.66933" stroke-linecap="round" stroke-linejoin="round"/>
<path d="M1519.77 166.742H1568.28C1572.09 166.742 1575.2 169.858 1575.2 173.668V209.249C1575.2 213.059 1572.09 216.175 1568.28 216.175H1519.77C1515.96 216.175 1512.85 213.059 1512.85 209.249V173.668C1512.85 169.858 1515.96 166.742 1519.77 166.742Z" stroke="black" stroke-width="5.66933" stroke-linecap="round" stroke-linejoin="round"/>
<path d="M584.826 430.284H915.692V458.448H584.826V430.284Z" stroke="black" stroke-width="5.66933" stroke-linecap="round" stroke-linejoin="round"/>
<path d="M959.449 430.284H1289.22V458.448H959.449V430.284Z" stroke="black" stroke-width="5.66933" stroke-linecap="round" stroke-linejoin="round"/>
<path d="M884.516 196.856H953.792V220.915H884.516V196.856Z" stroke="black" stroke-width="5.66933" stroke-linecap="round" stroke-linejoin="round"/>
<path d="M540.93 429.758V535.323" stroke="black" stroke-width="5.66933" stroke-linecap="round" stroke-linejoin="round"/>
<path d="M1333.29 429.844V534.749" stroke="black" stroke-width="5.66933" stroke-linecap="round" stroke-linejoin="round"/>
<path d="M394.15 97.5941H573.625V61.9573H355.78V96.431H355.639V257.078H277.902V291.565H394.01V257.947H394.15V97.5941Z" stroke="black" stroke-width="5.66933" stroke-linecap="round" stroke-linejoin="round"/>
<path d="M2296.79 400.114V947.114" stroke="black" stroke-width="5.66933" stroke-miterlimit="22.9256"/>
<path fill-rule="evenodd" clip-rule="evenodd" d="M1491.55 251.222C1507.2 251.222 1519.89 263.913 1519.89 279.568C1519.89 295.224 1507.2 307.915 1491.55 307.915C1475.89 307.915 1463.2 295.224 1463.2 279.568C1463.2 263.913 1475.89 251.222 1491.55 251.222Z" fill="black"/>
<path d="M1500.48 286.43C1500.48 281.149 1496.84 277.99 1493 277.99C1492.32 277.99 1491.56 278.07 1490.88 278.35L1496.8 266.59H1491.12L1485.12 278.91C1483.84 281.51 1482.72 283.91 1482.72 286.51C1482.72 292.149 1486.56 295.31 1491.6 295.31C1496.64 295.31 1500.48 292.03 1500.48 286.43ZM1495.28 286.47C1495.28 289.11 1493.72 290.63 1491.6 290.63C1489.48 290.63 1487.92 289.11 1487.92 286.47C1487.92 283.83 1489.48 282.31 1491.6 282.31C1493.8 282.31 1495.28 283.949 1495.28 286.47Z" fill="white"/>
<path fill-rule="evenodd" clip-rule="evenodd" d="M2159.54 120.222C2175.2 120.222 2187.89 132.913 2187.89 148.569C2187.89 164.224 2175.2 176.915 2159.54 176.915C2143.89 176.915 2131.2 164.224 2131.2 148.569C2131.2 132.913 2143.89 120.222 2159.54 120.222Z" fill="black"/>
<path d="M2169.6 143.649C2169.6 138.009 2165.76 134.849 2160.72 134.849C2155.68 134.849 2151.84 138.129 2151.84 143.729C2151.84 149.009 2155.52 152.17 2159.36 152.17C2160.04 152.17 2160.8 152.09 2161.48 151.809L2155.56 163.569H2161.2L2167.24 151.249C2168.52 148.649 2169.6 146.249 2169.6 143.649ZM2164.4 143.689C2164.4 146.329 2162.84 147.85 2160.72 147.85C2158.52 147.85 2157.04 146.209 2157.04 143.689C2157.04 141.05 2158.6 139.529 2160.72 139.529C2162.84 139.529 2164.4 141.05 2164.4 143.689Z" fill="white"/>
<path fill-rule="evenodd" clip-rule="evenodd" d="M2677.54 710.222C2693.2 710.222 2705.89 722.913 2705.89 738.569C2705.89 754.224 2693.2 766.915 2677.54 766.915C2661.89 766.915 2649.2 754.224 2649.2 738.569C2649.2 722.913 2661.89 710.222 2677.54 710.222Z" fill="black"/>
<path d="M2669.42 755.069V726.59H2664.22L2658.42 731.63V737.229L2664.22 732.19V755.069H2669.42ZM2695.54 746.829V734.83C2695.54 729.39 2691.54 726.35 2686.9 726.35C2682.26 726.35 2678.22 729.39 2678.22 734.83V746.829C2678.22 752.27 2682.26 755.31 2686.9 755.31C2691.54 755.31 2695.54 752.27 2695.54 746.829ZM2690.34 746.79C2690.34 749.19 2688.98 750.63 2686.9 750.63C2684.82 750.63 2683.42 749.19 2683.42 746.79V734.91C2683.42 732.509 2684.82 731.03 2686.9 731.03C2688.98 731.03 2690.34 732.509 2690.34 734.91V746.79Z" fill="white"/>
<path fill-rule="evenodd" clip-rule="evenodd" d="M2264.54 120.222C2280.2 120.222 2292.89 132.913 2292.89 148.569C2292.89 164.224 2280.2 176.915 2264.54 176.915C2248.89 176.915 2236.2 164.224 2236.2 148.569C2236.2 132.913 2248.89 120.222 2264.54 120.222Z" fill="black"/>
<path d="M2274.6 143.649C2274.6 138.009 2270.76 134.849 2265.72 134.849C2260.68 134.849 2256.84 138.129 2256.84 143.729C2256.84 149.009 2260.52 152.17 2264.36 152.17C2265.04 152.17 2265.8 152.09 2266.48 151.809L2260.56 163.569H2266.2L2272.24 151.249C2273.52 148.649 2274.6 146.249 2274.6 143.649ZM2269.4 143.689C2269.4 146.329 2267.84 147.85 2265.72 147.85C2263.52 147.85 2262.04 146.209 2262.04 143.689C2262.04 141.05 2263.6 139.529 2265.72 139.529C2267.84 139.529 2269.4 141.05 2269.4 143.689Z" fill="white"/>
<rect id="room1" x="891" y="68" width="56" height="56" rx="20" fill="#3879F6"/>
<path d="M921.916 102.848C921.916 104.048 922.24 104.888 922.888 105.368C923.56 105.824 924.568 106.052 925.912 106.052C925.912 106.46 925.828 106.916 925.66 107.42C925.516 107.9 925.324 108.26 925.084 108.5H913.312C913.048 108.26 912.832 107.9 912.664 107.42C912.52 106.916 912.448 106.46 912.448 106.052C913.72 106.052 914.692 105.812 915.364 105.332C916.06 104.852 916.408 104.024 916.408 102.848V89.816C916.408 89.048 915.868 88.664 914.788 88.664C914.428 88.664 914.032 88.712 913.6 88.808C913.192 88.88 912.832 88.988 912.52 89.132L911.548 87.332L917.164 84.056C917.908 83.624 918.508 83.336 918.964 83.192C919.444 83.024 919.864 82.94 920.224 82.94C920.824 82.94 921.256 83.144 921.52 83.552C921.784 83.936 921.916 84.38 921.916 84.884V102.848Z" fill="white"/>
</svg>
