<!-- icon666.com - MILLIONS vector ICONS FREE --><svg id="Layer_1" enable-background="new 0 0 500 500" viewBox="0 0 500 500" xmlns="http://www.w3.org/2000/svg"><path d="m349 37h42v24h-42z"></path><path d="m500 463h-500v-157.923l11.284-.674c27.795-1.662 49.567-25.558 49.567-54.403s-21.772-52.741-49.567-54.403l-11.284-.674v-157.923h332v24h-308v112.177c34.907 7.492 60.852 39.25 60.852 76.823s-25.945 69.331-60.852 76.823v112.177h452v-112.177c-34.907-7.492-60.852-39.25-60.852-76.823s25.944-69.331 60.852-76.823v-112.177h-68v-24h92v157.923l-11.284.674c-27.795 1.662-49.567 25.558-49.567 54.403s21.772 52.741 49.567 54.403l11.284.674z"></path><path d="m188 203h146v24h-146z"></path><path d="m188 279h146v24h-146z"></path></svg>