<svg width="500" height="500" viewBox="0 0 500 500" fill="none" xmlns="http://www.w3.org/2000/svg">
<rect width="500" height="500" fill="url(#paint0_linear_23_367)"/>
<path d="M71.9758 174V168.6L81.6758 167.4V114.7L72.8758 113.7V108.3H99.2758L115.576 152.3L130.876 108.3H156.176V113.7L149.076 114.5C149.009 118.567 148.942 122.7 148.876 126.9C148.876 131.033 148.876 135.167 148.876 139.3V143C148.876 147.133 148.876 151.267 148.876 155.4C148.942 159.533 149.009 163.667 149.076 167.8L156.476 168.6V174H124.576V168.6L131.876 167.7C132.009 163.633 132.042 159.667 131.976 155.8C131.976 151.933 132.009 148.367 132.076 145.1L132.276 123L114.476 174H106.776L87.6758 122.9L88.1758 142.9V167.3L96.3758 168.6V174H71.9758ZM119.135 223.7V218.3H150.735V223.7L143.335 224.5C143.268 228.567 143.202 232.667 143.135 236.8C143.135 240.933 143.135 245.1 143.135 249.3V253C143.135 257.067 143.135 261.2 143.135 265.4C143.202 269.533 143.268 273.667 143.335 277.8L150.735 278.6V284H119.135V278.6L126.535 277.8C126.668 273.733 126.735 269.6 126.735 265.4C126.735 261.2 126.735 256.867 126.735 252.4L127.035 239.3L102.735 273.1L102.635 277.8L110.835 278.6V284H79.3352V278.6L86.6352 277.8C86.7685 273.733 86.8352 269.633 86.8352 265.5C86.8352 261.367 86.8352 257.2 86.8352 253V249.3C86.8352 245.167 86.8352 241.033 86.8352 236.9C86.8352 232.767 86.7685 228.633 86.6352 224.5L79.3352 223.7V218.3H110.835V223.7L103.435 224.5C103.368 228.567 103.302 232.667 103.235 236.8C103.235 240.933 103.235 245.1 103.235 249.3L102.935 263.1L127.235 229.1L127.435 224.6L119.135 223.7ZM88.5637 333.7V328.3H139.564L140.264 345.5H131.964L129.964 333.9H113.264C113.197 337.7 113.13 341.533 113.064 345.4C113.064 349.267 113.064 353.167 113.064 357.1H123.864L125.064 349.3H130.864V370.8H125.064L123.864 363H113.064C113.064 367.6 113.064 371.967 113.064 376.1C113.13 380.233 113.197 384.333 113.264 388.4H131.964L133.964 376.8H142.264L141.564 394H88.5637V388.6L96.0637 387.8C96.197 383.733 96.2637 379.633 96.2637 375.5C96.2637 371.367 96.2637 367.2 96.2637 363V359.3C96.2637 355.167 96.2637 351.033 96.2637 346.9C96.2637 342.7 96.197 338.567 96.0637 334.5L88.5637 333.7Z" fill="white"/>
<path d="M266.932 252.735C267.375 255.269 267.239 257.758 268.364 259.362C272.811 265.706 270.679 272.465 269.884 279.012C268.524 290.203 266.617 301.327 264.927 312.477C264.239 317.021 263.879 321.659 262.673 326.064C261.986 328.577 259.895 330.705 258.397 333.069C262.01 338.29 263.842 343.149 262.258 348.494C256.745 350.387 253.033 349.483 248.72 349.06C247.617 348.952 246.132 346.821 245.88 345.427C245.544 343.575 246.065 341.492 246.527 339.583C249.957 325.411 248.084 311.181 247.203 296.944C246.671 288.33 246.571 279.69 246.06 271.075C245.994 269.967 244.621 268.937 243.854 267.871C243.07 268.562 241.85 269.112 241.571 269.968C239.26 277.068 236.617 284.116 235.063 291.391C233.156 300.318 232.403 309.484 230.777 318.479C229.527 325.387 227.689 332.188 226.137 339.043C225.921 339.998 225.763 340.982 225.72 341.959C225.363 349.932 225.4 350.021 217.808 352.285C214.533 353.262 211.153 354.169 207.769 354.424C203.387 354.754 201.489 351.64 203.882 347.792C205.555 345.102 208.458 343.209 210.517 340.717C211.984 338.942 213.952 336.788 214.006 334.759C214.583 312.821 214.831 290.875 215.144 268.931C215.167 267.346 214.991 265.759 214.908 264.174C214.474 264.005 214.04 263.836 213.606 263.667C212.71 265.348 211.761 267.003 210.93 268.716C209.81 271.026 208.952 273.48 207.675 275.695C204.85 280.598 200.928 276.328 197.552 276.573C194.878 276.768 194.213 274.334 194.711 271.97C196.397 263.973 197.223 255.629 200.131 248.095C203.884 238.37 208.471 228.715 214.324 220.138C218.631 213.826 225.336 209.043 231.336 204.012C248.678 189.47 262.882 172.668 271.048 151.228C271.793 149.273 273.724 147.77 275.105 146.056C277.118 147.861 280.048 149.303 280.938 151.552C282.416 155.283 282.723 159.515 283.268 163.571C284.117 169.88 284.816 176.212 285.398 182.551C285.475 183.396 284.712 184.748 283.957 185.152C282.254 186.062 280.353 186.692 278.462 187.141C271.492 188.797 267.955 193.03 267.938 200.045C267.915 209.873 268.059 219.703 267.892 229.527C267.763 237.116 267.266 244.698 266.932 252.735Z" fill="white"/>
<path d="M362.933 308.027C361.954 320.067 361.001 332.547 365.84 343.949C366.339 353.57 345.282 349.232 350.359 338.57C353.885 329.196 349.125 319.869 348.049 310.406C345.99 301.317 345.718 291.651 343.269 282.81C335.871 276.708 330.543 268.232 336.648 259.132C339.297 246.175 337.796 232.821 338.895 219.713C337.364 209.121 342.985 191.667 329.359 187.716C315.834 186.963 320.503 174.022 320.043 165.117C318.947 156.288 323.768 154.345 328.038 162.357C345.298 182.112 364.455 200.073 382.975 218.595C395.357 232.301 406.261 249.238 406.384 268.324C403.464 278.987 380.702 271.692 388.855 287.659C389.018 300.537 388.426 313.443 389.522 326.295C391.381 336.243 401.384 344.078 401.977 352.927C393.848 356.763 377.6 351.643 379.485 340.275C382.484 330.116 376.994 321.373 374.012 312.089C371.255 302.42 370.394 292.261 371.065 282.245C359.917 272.877 359.892 294.328 362.411 300.992C362.585 303.337 362.755 305.682 362.933 308.027Z" fill="white"/>
<path d="M170.002 379.788C169.96 374.831 170.595 372.277 176.466 371.975C181.181 371.732 181.228 369.578 181.176 366.12C181.118 362.206 182.379 361.056 186.246 361.066C262.977 360.884 339.702 361.125 416.433 361.238C419.627 361.237 420.615 362.289 420.642 365.484C420.689 370.958 422.922 371.992 427.172 372.336C432.545 372.426 431.978 375.908 431.987 379.666C432.005 383.916 430.905 386.007 426.378 386C342.777 385.866 259.176 385.939 175.575 385.86C171.147 385.856 170.044 384.754 170.002 379.788Z" fill="white"/>
<path d="M267.926 345.183C265.996 338.906 276.926 338.578 274.758 331.734C276.771 316.534 279.643 301.452 281.507 286.223C282.502 275.799 285.983 264.382 280.209 254.689C275.151 246.34 288.662 247.955 293.41 248.078C303.879 248.253 314.489 247.515 324.868 248.565C330.492 253.278 320.881 259.234 321.928 265.164C321.258 275.798 325.075 286.051 326.111 296.555C328.112 309.379 329.277 322.41 331.067 335.2C332.6 338.992 338.02 340.921 336.952 345.569C336.952 348.609 336.952 351.648 336.952 354.688C313.943 354.688 290.934 354.688 267.926 354.688C267.926 351.52 267.926 348.351 267.926 345.183Z" fill="white"/>
<path d="M187.346 222.399C192.926 207.147 198.702 192.397 203.886 177.443C206.221 170.708 207.621 163.611 208.987 156.589C210.113 150.808 212.993 147.062 218.783 145.699C226.528 143.877 232.34 139.344 237.036 132.372C233.2 127.203 231.121 120.504 223.328 118.293C217.575 116.661 215.966 106.767 220.565 100.34C224.291 95.132 228.956 90.5244 233.666 86.1466C234.711 85.1759 238.027 85.6708 239.71 86.5789C242.783 88.2372 245.103 88.9052 248.141 86.3219C249.384 85.2642 252.262 85.2349 254.029 85.8303C265.292 89.6271 271.318 98.3469 274.641 109.166C275.081 110.598 274.041 113.183 272.826 114.281C270.205 116.648 266.533 117.948 264.197 120.51C261.232 123.761 258.997 127.739 256.871 131.635C256.494 132.325 257.908 134.45 258.962 135.39C266.553 142.163 266.591 143.64 260.628 152.037C255.559 159.175 251.626 167.232 245.916 173.769C239.745 180.834 232.096 186.608 225.092 192.945C224.554 192.592 224.016 192.24 223.479 191.887C223.479 189.804 223.788 187.656 223.368 185.661C223.094 184.363 221.758 183.289 220.898 182.114C220.045 183.173 218.761 184.106 218.406 185.312C215.548 195.02 213.539 205.041 209.891 214.43C207.453 220.703 202.755 226.097 199.076 231.89C196.176 236.457 193.282 241.029 190.394 245.605C188.936 247.915 187.498 250.239 185.951 252.718C180.58 249.693 181.979 245.593 182.765 241.879C184.118 235.492 185.773 229.169 187.346 222.399Z" fill="white"/>
<path d="M403.618 191.358C410.016 201.661 413.185 213.517 412.882 225.594C414.9 231.495 411.353 243.926 406.648 232.825C396.936 220.181 385.577 206.452 386.57 189.469C386.053 184.617 387.994 172.221 383.16 172.486C378.718 177.417 383.895 198.137 374.658 188.979C360.112 176.165 343.02 165.722 331.083 150.273C324.357 137.348 341.898 129.616 339.208 117.045C338.846 107.174 340.876 90.3217 353.749 90.505C364.397 90.278 376.911 93.2721 375.219 106.832C374.992 116.737 372.998 127.426 381.946 134.467C385.975 140.953 393.453 145.418 394.964 153.701C398.384 166.106 400.67 178.83 403.618 191.358Z" fill="white"/>
<path d="M420.047 394.008C425.306 394.038 425.501 395.422 425.368 399.455C425.256 402.847 425.253 404.025 420.84 403.91C420.029 403.889 421.813 403.996 420.98 403.996C340.992 403.997 261.003 403.95 181.015 404.107C175.849 404.117 175.979 402.749 175.967 399.068C175.956 395.363 175.818 393.873 180.948 393.894C260.542 392.858 340.421 393.55 420.047 394.008Z" fill="white"/>
<path d="M420.047 394.008C425.306 394.038 425.501 395.422 425.368 399.454C425.256 402.847 425.253 404.025 420.84 403.91C420.029 403.888 421.813 403.996 420.98 403.996C340.992 403.997 261.003 403.95 181.015 404.107C175.849 404.117 175.979 402.749 175.967 399.067C175.956 395.363 175.818 393.873 180.948 393.894C260.542 392.858 340.421 393.549 420.047 394.008Z" fill="white"/>
<path d="M284.303 198.814C296.751 198.71 308.739 198.84 320.721 198.625C325.44 198.541 327.06 200.343 326.916 204.985C326.653 213.466 326.78 221.963 326.873 230.452C326.906 233.571 326.78 236.038 322.561 236.035C321.175 236.034 319.678 237.485 318.421 238.504C313.84 242.22 309.838 242.276 305.88 238.041C303.302 235.282 301.647 235.603 298.964 238.061C297.171 239.702 294.133 240.901 291.73 240.778C285.74 240.469 280.183 233.857 280.164 227.901C280.139 219.91 280.108 211.919 280.189 203.929C280.214 201.518 280.09 198.732 284.303 198.814Z" fill="white"/>
<defs>
<linearGradient id="paint0_linear_23_367" x1="500" y1="-10" x2="-2.98023e-07" y2="500" gradientUnits="userSpaceOnUse">
<stop stop-color="#7ED957"/>
<stop offset="1" stop-color="#005662"/>
</linearGradient>
</defs>
</svg>
