<svg width="529" height="216" viewBox="0 0 529 216" fill="none" xmlns="http://www.w3.org/2000/svg">
<path d="M197.808 92.9987C197.808 80.9827 207.557 71.2307 219.576 71.2307C231.604 71.2307 241.347 80.9827 241.347 92.9987C241.347 105.024 231.604 114.772 219.576 114.772C207.557 114.772 197.808 105.024 197.808 92.9987Z" fill="#FCD205"/>
<path d="M65.3063 143.385V208.695H0L65.3063 143.385Z" fill="#1C387E"/>
<path d="M97.9604 143.385V208.695H32.6516L97.9604 143.385Z" fill="#3871C1"/>
<path d="M136.801 104.544V137.193H104.147L136.801 104.544Z" fill="#110B0D"/>
<path d="M241.347 -3.40629e-06V65.312H176.036L241.347 -3.40629e-06Z" fill="#ED1C24"/>
<path d="M145.405 151.547V143.385H104.586V208.695H112.655L120.914 200.433V208.695H169.895V143.385H153.571L145.405 151.547Z" fill="#FCD205"/>
<path d="M145.405 137.193V120.867H161.735L145.405 137.193Z" fill="#8D198F"/>
<path d="M145.405 120.867V104.544H161.735L145.405 120.867Z" fill="#8D198F"/>
<path d="M225.02 120.867H169.895V137.193H241.347L225.02 120.867Z" fill="#40B93C"/>
<path d="M169.895 82.1173V114.772H202.551L169.895 82.1173Z" fill="#110B0D"/>
<path d="M178.436 79.44C178.436 74.9067 182.112 71.2307 186.645 71.2307C191.179 71.2307 194.848 74.9067 194.848 79.44C194.848 83.9707 191.179 87.648 186.645 87.648C182.112 87.648 178.436 83.9707 178.436 79.44Z" fill="#66CEF5"/>
<path d="M208.691 176.039H241.347C241.347 158.003 226.727 143.385 208.691 143.385C190.656 143.385 176.036 158.003 176.036 176.039C176.036 194.072 190.656 208.695 208.691 208.695V176.039Z" fill="#ED1C24"/>
<path d="M216.855 192.367C216.855 187.859 220.511 184.201 225.02 184.201C229.529 184.201 233.183 187.859 233.183 192.367C233.183 196.873 229.529 200.528 225.02 200.528C220.511 200.528 216.855 196.873 216.855 192.367Z" fill="#ED1C24"/>
<path d="M261.427 97.2721H266.874L273.062 116.563L279.251 97.2721H284.698L275.271 124.999H270.854L261.427 97.2721ZM258.114 97.2721H263.75L264.798 118.524V124.999H258.114V97.2721ZM282.375 97.2721H288.03V124.999H281.327V118.524L282.375 97.2721ZM298.333 122.58L303.665 104.394H310.558L302.274 128.065C302.097 128.585 301.862 129.144 301.57 129.74C301.278 130.35 300.878 130.927 300.37 131.473C299.862 132.019 299.208 132.464 298.409 132.806C297.622 133.149 296.644 133.32 295.476 133.32C294.854 133.32 294.397 133.289 294.105 133.225C293.826 133.174 293.394 133.079 292.81 132.94V128.35C292.975 128.35 293.115 128.35 293.229 128.35C293.356 128.35 293.496 128.35 293.648 128.35C294.333 128.35 294.879 128.28 295.286 128.141C295.705 128.001 296.022 127.798 296.238 127.531C296.466 127.265 296.644 126.941 296.771 126.56L298.333 122.58ZM296.98 104.394L301.037 118.81L301.741 125.608H297.438L290.106 104.394H296.98ZM322.193 115.172H317.966V112.583H320.613C321.159 112.583 321.597 112.5 321.927 112.335C322.27 112.17 322.517 111.942 322.669 111.65C322.834 111.345 322.917 111.002 322.917 110.621C322.917 110.291 322.86 109.974 322.746 109.669C322.644 109.364 322.441 109.11 322.136 108.907C321.832 108.704 321.381 108.603 320.784 108.603C320.289 108.603 319.857 108.666 319.489 108.793C319.121 108.92 318.835 109.117 318.632 109.383C318.429 109.637 318.328 109.967 318.328 110.374H311.891C311.891 109.041 312.272 107.904 313.034 106.965C313.795 106.013 314.817 105.289 316.1 104.794C317.382 104.286 318.797 104.032 320.346 104.032C321.705 104.032 322.936 104.166 324.041 104.432C325.145 104.686 326.091 105.067 326.878 105.575C327.665 106.083 328.268 106.711 328.687 107.46C329.119 108.196 329.334 109.053 329.334 110.031C329.334 110.729 329.169 111.389 328.839 112.011C328.509 112.633 328.033 113.186 327.411 113.668C326.789 114.138 326.034 114.506 325.145 114.773C324.269 115.039 323.285 115.172 322.193 115.172ZM317.966 113.801H322.193C323.412 113.801 324.485 113.922 325.412 114.163C326.351 114.392 327.138 114.734 327.773 115.192C328.408 115.649 328.884 116.214 329.201 116.886C329.531 117.547 329.696 118.308 329.696 119.172C329.696 120.149 329.468 121.025 329.011 121.799C328.554 122.561 327.906 123.209 327.068 123.742C326.23 124.275 325.24 124.681 324.098 124.961C322.955 125.24 321.705 125.38 320.346 125.38C318.912 125.38 317.521 125.151 316.176 124.694C314.83 124.237 313.726 123.532 312.862 122.58C311.999 121.628 311.567 120.403 311.567 118.905H318.004C318.004 119.248 318.099 119.565 318.29 119.857C318.48 120.149 318.778 120.384 319.185 120.562C319.604 120.727 320.143 120.809 320.803 120.809C321.451 120.809 321.952 120.701 322.308 120.485C322.676 120.27 322.93 119.99 323.069 119.648C323.222 119.305 323.298 118.956 323.298 118.6C323.298 118.054 323.196 117.616 322.993 117.286C322.79 116.956 322.485 116.715 322.079 116.563C321.686 116.398 321.197 116.315 320.613 116.315H317.966V113.801ZM342.398 125.38C340.722 125.38 339.224 125.119 337.904 124.599C336.583 124.066 335.466 123.336 334.552 122.409C333.651 121.482 332.959 120.416 332.477 119.21C332.007 118.004 331.772 116.728 331.772 115.382V114.658C331.772 113.148 331.981 111.751 332.4 110.469C332.819 109.174 333.441 108.044 334.267 107.079C335.092 106.114 336.126 105.365 337.371 104.832C338.615 104.286 340.062 104.013 341.712 104.013C343.172 104.013 344.48 104.248 345.635 104.718C346.791 105.188 347.768 105.86 348.568 106.736C349.38 107.612 349.996 108.672 350.415 109.917C350.847 111.161 351.062 112.557 351.062 114.106V116.715H334.229V112.697H344.797V112.202C344.81 111.516 344.689 110.932 344.436 110.45C344.194 109.967 343.839 109.599 343.369 109.345C342.899 109.091 342.328 108.964 341.655 108.964C340.957 108.964 340.379 109.117 339.922 109.422C339.478 109.726 339.129 110.145 338.875 110.678C338.634 111.199 338.462 111.802 338.361 112.487C338.259 113.173 338.208 113.897 338.208 114.658V115.382C338.208 116.144 338.31 116.836 338.513 117.458C338.729 118.08 339.034 118.613 339.427 119.057C339.833 119.489 340.316 119.825 340.875 120.067C341.446 120.308 342.093 120.428 342.817 120.428C343.693 120.428 344.556 120.263 345.407 119.933C346.257 119.603 346.987 119.057 347.597 118.296L350.51 121.761C350.091 122.358 349.495 122.936 348.72 123.494C347.958 124.053 347.044 124.51 345.978 124.865C344.912 125.208 343.718 125.38 342.398 125.38ZM359.994 116.353L365.668 104.394H372.086V124.999H365.668V113.002L359.994 124.999H353.557V104.394H359.994V116.353ZM365.63 95.7106H370.029C370.029 96.8531 369.737 97.8688 369.153 98.7574C368.582 99.6334 367.77 100.319 366.716 100.814C365.662 101.309 364.418 101.557 362.983 101.557C360.812 101.557 359.092 101.017 357.823 99.9381C356.553 98.8463 355.918 97.4371 355.918 95.7106H360.298C360.298 96.3326 360.501 96.8912 360.908 97.3864C361.314 97.8815 362.006 98.129 362.983 98.129C363.961 98.129 364.646 97.8815 365.04 97.3864C365.434 96.8912 365.63 96.3326 365.63 95.7106ZM264.417 155.773L274.376 138.272H281.061V165.999H274.376V148.517L264.417 165.999H257.733V138.272H264.417V155.773ZM293.553 161.428C294.149 161.428 294.657 161.32 295.076 161.105C295.508 160.876 295.832 160.559 296.047 160.152C296.276 159.734 296.384 159.232 296.371 158.648H302.408C302.42 160.197 302.04 161.555 301.265 162.723C300.503 163.879 299.462 164.78 298.142 165.427C296.834 166.062 295.355 166.38 293.705 166.38C292.093 166.38 290.684 166.119 289.478 165.599C288.271 165.066 287.262 164.329 286.45 163.39C285.65 162.438 285.047 161.327 284.641 160.057C284.247 158.788 284.05 157.41 284.05 155.925V155.487C284.05 154.002 284.247 152.624 284.641 151.355C285.047 150.072 285.65 148.962 286.45 148.022C287.262 147.07 288.265 146.334 289.458 145.813C290.665 145.28 292.067 145.013 293.667 145.013C295.381 145.013 296.892 145.337 298.199 145.984C299.52 146.632 300.554 147.571 301.303 148.803C302.052 150.034 302.42 151.526 302.408 153.278H296.371C296.384 152.656 296.289 152.097 296.085 151.602C295.882 151.107 295.565 150.714 295.133 150.422C294.714 150.117 294.175 149.964 293.515 149.964C292.854 149.964 292.321 150.11 291.915 150.402C291.509 150.694 291.198 151.101 290.982 151.621C290.779 152.129 290.639 152.713 290.563 153.373C290.5 154.033 290.468 154.738 290.468 155.487V155.925C290.468 156.687 290.5 157.404 290.563 158.077C290.639 158.737 290.785 159.321 291.001 159.829C291.217 160.324 291.528 160.717 291.934 161.009C292.34 161.289 292.88 161.428 293.553 161.428ZM316.69 145.394V165.999H310.253V145.394H316.69ZM323.203 145.394V150.307H303.855V145.394H323.203ZM324.231 155.906V155.506C324.231 153.995 324.447 152.605 324.878 151.336C325.31 150.053 325.945 148.943 326.783 148.003C327.621 147.064 328.655 146.334 329.887 145.813C331.118 145.28 332.54 145.013 334.152 145.013C335.777 145.013 337.206 145.28 338.437 145.813C339.681 146.334 340.722 147.064 341.56 148.003C342.398 148.943 343.033 150.053 343.464 151.336C343.896 152.605 344.112 153.995 344.112 155.506V155.906C344.112 157.404 343.896 158.794 343.464 160.076C343.033 161.346 342.398 162.457 341.56 163.409C340.722 164.348 339.688 165.078 338.456 165.599C337.225 166.119 335.803 166.38 334.19 166.38C332.578 166.38 331.15 166.119 329.906 165.599C328.662 165.078 327.621 164.348 326.783 163.409C325.945 162.457 325.31 161.346 324.878 160.076C324.447 158.794 324.231 157.404 324.231 155.906ZM330.648 155.506V155.906C330.648 156.68 330.706 157.404 330.82 158.077C330.934 158.75 331.125 159.34 331.391 159.848C331.658 160.343 332.02 160.73 332.477 161.009C332.934 161.289 333.505 161.428 334.19 161.428C334.863 161.428 335.422 161.289 335.866 161.009C336.323 160.73 336.685 160.343 336.952 159.848C337.218 159.34 337.409 158.75 337.523 158.077C337.637 157.404 337.694 156.68 337.694 155.906V155.506C337.694 154.757 337.637 154.052 337.523 153.392C337.409 152.719 337.218 152.129 336.952 151.621C336.685 151.101 336.323 150.694 335.866 150.402C335.409 150.11 334.838 149.964 334.152 149.964C333.479 149.964 332.915 150.11 332.458 150.402C332.013 150.694 331.658 151.101 331.391 151.621C331.125 152.129 330.934 152.719 330.82 153.392C330.706 154.052 330.648 154.757 330.648 155.506ZM353.443 149.355V173.921H347.025V145.394H353.005L353.443 149.355ZM366.087 155.449V155.849C366.087 157.347 365.916 158.737 365.573 160.019C365.23 161.301 364.723 162.419 364.05 163.371C363.377 164.323 362.539 165.066 361.536 165.599C360.546 166.119 359.397 166.38 358.089 166.38C356.858 166.38 355.798 166.107 354.909 165.561C354.021 165.015 353.278 164.259 352.681 163.295C352.084 162.33 351.602 161.225 351.234 159.981C350.866 158.737 350.574 157.423 350.358 156.039V155.525C350.574 154.04 350.866 152.662 351.234 151.393C351.602 150.11 352.084 148.993 352.681 148.041C353.278 147.089 354.014 146.346 354.89 145.813C355.779 145.28 356.839 145.013 358.07 145.013C359.378 145.013 360.527 145.261 361.517 145.756C362.52 146.251 363.358 146.962 364.031 147.889C364.716 148.803 365.23 149.901 365.573 151.183C365.916 152.465 366.087 153.887 366.087 155.449ZM359.67 155.849V155.449C359.67 154.649 359.613 153.919 359.499 153.259C359.384 152.586 359.2 152.002 358.946 151.507C358.705 151.012 358.381 150.631 357.975 150.364C357.569 150.098 357.067 149.964 356.471 149.964C355.785 149.964 355.208 150.072 354.738 150.288C354.281 150.491 353.913 150.809 353.633 151.24C353.367 151.659 353.176 152.186 353.062 152.821C352.96 153.443 352.916 154.173 352.929 155.011V156.572C352.903 157.537 352.999 158.388 353.214 159.124C353.43 159.848 353.805 160.413 354.338 160.819C354.871 161.225 355.595 161.428 356.509 161.428C357.118 161.428 357.626 161.289 358.032 161.009C358.438 160.717 358.762 160.318 359.003 159.81C359.245 159.289 359.416 158.693 359.518 158.02C359.619 157.347 359.67 156.623 359.67 155.849ZM375.266 157.353L380.941 145.394H387.358V165.999H380.941V154.002L375.266 165.999H368.83V145.394H375.266V157.353ZM397.166 157.353L402.84 145.394H409.258V165.999H402.84V154.002L397.166 165.999H390.729V145.394H397.166V157.353ZM277.195 201.857V206.999H262.417V201.857H277.195ZM264.798 179.272V206.999H258.114V179.272H264.798ZM275.291 190.279V195.249H262.417V190.279H275.291ZM277.252 179.272V184.433H262.417V179.272H277.252ZM286.488 186.394V206.999H280.07V186.394H286.488ZM299.837 186.394L291.382 199.8H285.631L284.907 193.802H288.354L291.61 186.394H299.837ZM291.744 206.999L287.878 198.601L293.838 195.916L300.446 206.999H291.744ZM312.691 201.819V193.326C312.691 192.742 312.608 192.24 312.443 191.821C312.278 191.402 312.018 191.079 311.663 190.85C311.307 190.609 310.831 190.488 310.234 190.488C309.752 190.488 309.339 190.571 308.997 190.736C308.654 190.901 308.394 191.149 308.216 191.479C308.038 191.809 307.949 192.228 307.949 192.735H301.532C301.532 191.783 301.741 190.901 302.16 190.089C302.592 189.263 303.201 188.546 303.988 187.937C304.788 187.327 305.74 186.858 306.845 186.527C307.962 186.185 309.206 186.013 310.577 186.013C312.215 186.013 313.675 186.286 314.957 186.832C316.252 187.378 317.274 188.197 318.023 189.289C318.772 190.368 319.146 191.726 319.146 193.364V201.8C319.146 203.146 319.223 204.168 319.375 204.866C319.527 205.551 319.743 206.154 320.022 206.675V206.999H313.586C313.281 206.364 313.053 205.589 312.9 204.675C312.761 203.749 312.691 202.797 312.691 201.819ZM313.472 194.411L313.51 197.839H310.672C310.076 197.839 309.568 197.922 309.149 198.087C308.743 198.252 308.413 198.48 308.159 198.772C307.917 199.051 307.74 199.369 307.625 199.724C307.524 200.08 307.473 200.454 307.473 200.848C307.473 201.229 307.562 201.571 307.74 201.876C307.93 202.168 308.184 202.397 308.501 202.562C308.819 202.727 309.174 202.809 309.568 202.809C310.279 202.809 310.882 202.676 311.377 202.409C311.885 202.13 312.272 201.794 312.539 201.4C312.805 201.006 312.938 200.638 312.938 200.296L314.348 202.923C314.094 203.431 313.802 203.945 313.472 204.466C313.154 204.986 312.754 205.469 312.272 205.913C311.802 206.345 311.225 206.7 310.539 206.98C309.854 207.246 309.022 207.38 308.044 207.38C306.775 207.38 305.607 207.119 304.541 206.599C303.487 206.078 302.643 205.355 302.008 204.428C301.373 203.488 301.056 202.409 301.056 201.191C301.056 200.124 301.246 199.172 301.627 198.334C302.021 197.496 302.611 196.785 303.398 196.201C304.185 195.617 305.188 195.173 306.407 194.868C307.625 194.564 309.06 194.411 310.71 194.411H313.472ZM333.943 186.394V206.999H327.506V186.394H333.943ZM340.456 186.394V191.307H321.108V186.394H340.456ZM351.615 207.38C349.939 207.38 348.441 207.119 347.121 206.599C345.8 206.066 344.683 205.336 343.769 204.409C342.868 203.482 342.176 202.416 341.693 201.21C341.224 200.004 340.989 198.728 340.989 197.382V196.658C340.989 195.148 341.198 193.751 341.617 192.469C342.036 191.174 342.658 190.044 343.483 189.079C344.309 188.114 345.343 187.365 346.587 186.832C347.832 186.286 349.279 186.013 350.929 186.013C352.389 186.013 353.697 186.248 354.852 186.718C356.007 187.188 356.985 187.86 357.785 188.736C358.597 189.612 359.213 190.672 359.632 191.917C360.063 193.161 360.279 194.557 360.279 196.106V198.715H343.445V194.697H354.014V194.202C354.027 193.516 353.906 192.932 353.652 192.45C353.411 191.967 353.056 191.599 352.586 191.345C352.116 191.091 351.545 190.964 350.872 190.964C350.174 190.964 349.596 191.117 349.139 191.422C348.695 191.726 348.346 192.145 348.092 192.678C347.851 193.199 347.679 193.802 347.578 194.487C347.476 195.173 347.425 195.897 347.425 196.658V197.382C347.425 198.144 347.527 198.836 347.73 199.458C347.946 200.08 348.25 200.613 348.644 201.057C349.05 201.489 349.533 201.825 350.091 202.067C350.663 202.308 351.31 202.428 352.034 202.428C352.91 202.428 353.773 202.263 354.624 201.933C355.474 201.603 356.204 201.057 356.813 200.296L359.727 203.761C359.308 204.358 358.711 204.936 357.937 205.494C357.175 206.053 356.261 206.51 355.195 206.865C354.128 207.208 352.935 207.38 351.615 207.38ZM369.363 190.355V214.921H362.945V186.394H368.925L369.363 190.355ZM382.007 196.449V196.849C382.007 198.347 381.836 199.737 381.493 201.019C381.15 202.301 380.643 203.419 379.97 204.371C379.297 205.323 378.459 206.066 377.456 206.599C376.466 207.119 375.317 207.38 374.009 207.38C372.778 207.38 371.718 207.107 370.829 206.561C369.94 206.015 369.198 205.259 368.601 204.295C368.004 203.33 367.522 202.225 367.154 200.981C366.786 199.737 366.494 198.423 366.278 197.039V196.525C366.494 195.04 366.786 193.662 367.154 192.393C367.522 191.11 368.004 189.993 368.601 189.041C369.198 188.089 369.934 187.346 370.81 186.813C371.699 186.28 372.759 186.013 373.99 186.013C375.298 186.013 376.447 186.261 377.437 186.756C378.44 187.251 379.278 187.962 379.951 188.889C380.636 189.803 381.15 190.901 381.493 192.183C381.836 193.465 382.007 194.887 382.007 196.449ZM375.59 196.849V196.449C375.59 195.649 375.533 194.919 375.418 194.259C375.304 193.586 375.12 193.002 374.866 192.507C374.625 192.012 374.301 191.631 373.895 191.364C373.489 191.098 372.987 190.964 372.391 190.964C371.705 190.964 371.127 191.072 370.658 191.288C370.201 191.491 369.833 191.809 369.553 192.24C369.287 192.659 369.096 193.186 368.982 193.821C368.88 194.443 368.836 195.173 368.849 196.011V197.572C368.823 198.537 368.918 199.388 369.134 200.124C369.35 200.848 369.725 201.413 370.258 201.819C370.791 202.225 371.515 202.428 372.429 202.428C373.038 202.428 373.546 202.289 373.952 202.009C374.358 201.717 374.682 201.318 374.923 200.81C375.165 200.289 375.336 199.693 375.438 199.02C375.539 198.347 375.59 197.623 375.59 196.849ZM391.186 198.353L396.861 186.394H403.278V206.999H396.861V195.002L391.186 206.999H384.75V186.394H391.186V198.353ZM421.007 194.43V199.362H410.724V194.43H421.007ZM413.066 186.394V206.999H406.649V186.394H413.066ZM425.121 186.394V206.999H418.684V186.394H425.121ZM441.079 177.292H446.239C446.239 178.206 446.144 179.031 445.954 179.767C445.763 180.491 445.408 181.145 444.887 181.729C444.367 182.3 443.605 182.801 442.602 183.233C441.612 183.652 440.304 184.007 438.679 184.299C437.638 184.503 436.762 184.852 436.051 185.347C435.34 185.842 434.769 186.515 434.337 187.365C433.918 188.203 433.62 189.244 433.442 190.488C433.277 191.733 433.214 193.205 433.252 194.906V195.421L428.339 196.297V195.782C428.352 193.231 428.574 191.015 429.005 189.136C429.437 187.245 430.053 185.651 430.853 184.357C431.665 183.062 432.643 182.027 433.785 181.253C434.928 180.478 436.21 179.932 437.632 179.615C438.533 179.412 439.231 179.215 439.727 179.025C440.234 178.834 440.583 178.606 440.774 178.339C440.977 178.072 441.079 177.723 441.079 177.292ZM439.498 187.537C440.92 187.537 442.177 187.778 443.269 188.26C444.36 188.743 445.274 189.422 446.011 190.298C446.747 191.174 447.306 192.209 447.687 193.402C448.067 194.583 448.258 195.871 448.258 197.268V197.668C448.258 199.064 448.042 200.359 447.61 201.552C447.179 202.733 446.544 203.761 445.706 204.637C444.868 205.513 443.827 206.193 442.583 206.675C441.352 207.157 439.93 207.399 438.317 207.399C436.705 207.399 435.277 207.132 434.033 206.599C432.789 206.053 431.741 205.291 430.891 204.314C430.053 203.336 429.418 202.187 428.986 200.867C428.555 199.547 428.339 198.099 428.339 196.525V196.125C428.326 195.947 428.434 195.782 428.663 195.63C428.904 195.465 429.183 195.262 429.5 195.021C429.831 194.767 430.123 194.424 430.376 193.992C431.278 192.456 432.198 191.218 433.138 190.279C434.077 189.327 435.067 188.635 436.108 188.203C437.149 187.759 438.279 187.537 439.498 187.537ZM438.279 192.488C437.378 192.488 436.667 192.71 436.146 193.154C435.639 193.586 435.277 194.164 435.061 194.887C434.858 195.611 434.756 196.404 434.756 197.268V197.668C434.756 198.34 434.813 198.969 434.928 199.553C435.042 200.124 435.232 200.632 435.499 201.076C435.766 201.508 436.127 201.844 436.584 202.086C437.054 202.327 437.632 202.447 438.317 202.447C438.99 202.447 439.555 202.327 440.012 202.086C440.469 201.844 440.831 201.508 441.098 201.076C441.364 200.632 441.555 200.124 441.669 199.553C441.783 198.969 441.84 198.34 441.84 197.668V197.268C441.84 196.62 441.783 196.011 441.669 195.44C441.555 194.856 441.364 194.348 441.098 193.916C440.831 193.472 440.463 193.123 439.993 192.869C439.536 192.615 438.965 192.488 438.279 192.488ZM457.532 204.58L462.864 186.394H469.757L461.474 210.065C461.296 210.585 461.061 211.144 460.769 211.74C460.477 212.35 460.077 212.927 459.569 213.473C459.062 214.019 458.408 214.464 457.608 214.806C456.821 215.149 455.843 215.32 454.675 215.32C454.053 215.32 453.596 215.289 453.304 215.225C453.025 215.174 452.593 215.079 452.009 214.94V210.35C452.174 210.35 452.314 210.35 452.428 210.35C452.555 210.35 452.695 210.35 452.847 210.35C453.533 210.35 454.079 210.28 454.485 210.141C454.904 210.001 455.221 209.798 455.437 209.531C455.666 209.265 455.843 208.941 455.97 208.56L457.532 204.58ZM456.18 186.394L460.236 200.81L460.94 207.608H456.637L449.305 186.394H456.18ZM477.908 190.355V214.921H471.49V186.394H477.47L477.908 190.355ZM490.552 196.449V196.849C490.552 198.347 490.381 199.737 490.038 201.019C489.695 202.301 489.188 203.419 488.515 204.371C487.842 205.323 487.004 206.066 486.001 206.599C485.011 207.119 483.862 207.38 482.554 207.38C481.323 207.38 480.263 207.107 479.374 206.561C478.485 206.015 477.743 205.259 477.146 204.295C476.549 203.33 476.067 202.225 475.699 200.981C475.331 199.737 475.039 198.423 474.823 197.039V196.525C475.039 195.04 475.331 193.662 475.699 192.393C476.067 191.11 476.549 189.993 477.146 189.041C477.743 188.089 478.479 187.346 479.355 186.813C480.244 186.28 481.304 186.013 482.535 186.013C483.843 186.013 484.992 186.261 485.982 186.756C486.985 187.251 487.823 187.962 488.496 188.889C489.181 189.803 489.695 190.901 490.038 192.183C490.381 193.465 490.552 194.887 490.552 196.449ZM484.135 196.849V196.449C484.135 195.649 484.078 194.919 483.963 194.259C483.849 193.586 483.665 193.002 483.411 192.507C483.17 192.012 482.846 191.631 482.44 191.364C482.034 191.098 481.532 190.964 480.936 190.964C480.25 190.964 479.672 191.072 479.203 191.288C478.746 191.491 478.377 191.809 478.098 192.24C477.832 192.659 477.641 193.186 477.527 193.821C477.425 194.443 477.381 195.173 477.394 196.011V197.572C477.368 198.537 477.463 199.388 477.679 200.124C477.895 200.848 478.27 201.413 478.803 201.819C479.336 202.225 480.06 202.428 480.974 202.428C481.583 202.428 482.091 202.289 482.497 202.009C482.903 201.717 483.227 201.318 483.468 200.81C483.709 200.289 483.881 199.693 483.982 199.02C484.084 198.347 484.135 197.623 484.135 196.849ZM507.824 186.394V191.345H499.712V206.999H493.294V186.394H507.824ZM520.45 201.819V193.326C520.45 192.742 520.367 192.24 520.202 191.821C520.037 191.402 519.777 191.079 519.421 190.85C519.066 190.609 518.59 190.488 517.993 190.488C517.511 190.488 517.098 190.571 516.755 190.736C516.413 190.901 516.152 191.149 515.975 191.479C515.797 191.809 515.708 192.228 515.708 192.735H509.291C509.291 191.783 509.5 190.901 509.919 190.089C510.351 189.263 510.96 188.546 511.747 187.937C512.547 187.327 513.499 186.858 514.604 186.527C515.721 186.185 516.965 186.013 518.336 186.013C519.974 186.013 521.434 186.286 522.716 186.832C524.011 187.378 525.033 188.197 525.782 189.289C526.531 190.368 526.905 191.726 526.905 193.364V201.8C526.905 203.146 526.981 204.168 527.134 204.866C527.286 205.551 527.502 206.154 527.781 206.675V206.999H521.345C521.04 206.364 520.812 205.589 520.659 204.675C520.52 203.749 520.45 202.797 520.45 201.819ZM521.23 194.411L521.269 197.839H518.431C517.834 197.839 517.327 197.922 516.908 198.087C516.501 198.252 516.171 198.48 515.917 198.772C515.676 199.051 515.499 199.369 515.384 199.724C515.283 200.08 515.232 200.454 515.232 200.848C515.232 201.229 515.321 201.571 515.499 201.876C515.689 202.168 515.943 202.397 516.26 202.562C516.578 202.727 516.933 202.809 517.327 202.809C518.038 202.809 518.641 202.676 519.136 202.409C519.644 202.13 520.031 201.794 520.297 201.4C520.564 201.006 520.697 200.638 520.697 200.296L522.106 202.923C521.853 203.431 521.561 203.945 521.23 204.466C520.913 204.986 520.513 205.469 520.031 205.913C519.561 206.345 518.983 206.7 518.298 206.98C517.612 207.246 516.781 207.38 515.803 207.38C514.534 207.38 513.366 207.119 512.299 206.599C511.246 206.078 510.401 205.355 509.767 204.428C509.132 203.488 508.814 202.409 508.814 201.191C508.814 200.124 509.005 199.172 509.386 198.334C509.779 197.496 510.37 196.785 511.157 196.201C511.944 195.617 512.947 195.173 514.166 194.868C515.384 194.564 516.819 194.411 518.469 194.411H521.23Z" fill="black"/>
</svg>
